<?xml version="1.0" encoding="UTF-8" standalone="no"?>
<!-- Generator: Adobe Illustrator 23.0.1, SVG Export Plug-In . SVG Version: 6.00 Build 0)  -->

<svg
   version="1.1"
   x="0px"
   y="0px"
   width="45.7px"
   height="72px"
   viewBox="0 0 45.7 72"
   enable-background="new 0 0 45.7 72"
   xml:space="preserve"
   id="svg431"
   sodipodi:docname="real-east.svg"
   inkscape:version="1.2.2 (b0a8486541, 2022-12-01)"
   xmlns:inkscape="http://www.inkscape.org/namespaces/inkscape"
   xmlns:sodipodi="http://sodipodi.sourceforge.net/DTD/sodipodi-0.dtd"
   xmlns="http://www.w3.org/2000/svg"
   xmlns:svg="http://www.w3.org/2000/svg"><defs
   id="defs435" /><sodipodi:namedview
   id="namedview433"
   pagecolor="#ffffff"
   bordercolor="#000000"
   borderopacity="0.25"
   inkscape:showpageshadow="2"
   inkscape:pageopacity="0.0"
   inkscape:pagecheckerboard="0"
   inkscape:deskcolor="#d1d1d1"
   showgrid="false"
   inkscape:zoom="11.638889"
   inkscape:cx="14.821002"
   inkscape:cy="36"
   inkscape:window-width="1920"
   inkscape:window-height="1008"
   inkscape:window-x="0"
   inkscape:window-y="0"
   inkscape:window-maximized="1"
   inkscape:current-layer="svg431" />
<g
   id="Layer_2">
	<g
   id="g419">
		<path
   d="M22.9,28.9l19.8,19.8L22.9,68.6L3,48.8L22.9,28.9 M22.9,25.9L0,48.8l22.9,22.9l22.9-22.9L22.9,25.9L22.9,25.9z"
   id="path417" />
	</g>
	<g
   id="g423">
		<path
   d="M23.7,42v5.8h5.5v1.5h-5.5v5.8h-1.6v-5.8h-5.5v-1.5h5.5V42H23.7z"
   id="path421" />
	</g>
</g>

<path
   style="fill:none;stroke:#ffffff;stroke-width:0.131192;stroke-linejoin:bevel"
   d="M 12.992098,58.671607 C 7.5712653,53.269439 3.1263566,48.829066 3.1145236,48.804111 3.1026906,48.779158 7.549054,44.302821 12.995332,38.856697 l 9.902322,-9.902044 9.872561,9.872841 9.872562,9.872842 -9.829742,9.867016 c -5.406358,5.426858 -9.860146,9.880372 -9.897309,9.896698 -0.03716,0.01632 -4.502795,-4.390274 -9.923628,-9.792443 z m 10.721506,-6.432944 v -2.921241 h 2.749403 2.749404 v -0.773269 -0.77327 h -2.749404 -2.749403 v -2.921241 -2.921241 h -0.816229 -0.816229 v 2.921241 2.921241 h -2.749404 -2.749403 v 0.77327 0.773269 h 2.749403 2.749404 v 2.921241 2.921242 h 0.816229 0.816229 z"
   id="path554" /><path
   style="fill:#ffff00;stroke-width:0;stroke-linejoin:bevel"
   d="m 12.930787,58.641683 -9.8806677,-9.828759 9.9235347,-9.929182 9.923534,-9.929181 9.874009,9.874009 9.87401,9.874009 -9.824259,9.887374 c -5.403343,5.438055 -9.865937,9.885824 -9.916876,9.883931 -0.05094,-0.0019 -4.538917,-4.426383 -9.973285,-9.832201 z m 10.782817,-6.40302 v -2.921241 h 2.749403 2.749403 v -0.77327 -0.773269 h -2.749403 -2.749403 v -2.921241 -2.921241 h -0.81623 -0.816229 v 2.921241 2.921241 h -2.749403 -2.749403 v 0.773269 0.77327 h 2.749403 2.749403 v 2.921241 2.921241 h 0.816229 0.81623 z"
   id="path18887" /><path
   style="fill:#ffff00;stroke-width:1.5;stroke-linejoin:bevel;stroke:#000000;stroke-opacity:1;stroke-dasharray:none"
   d="m 20.153951,20.573415 -2.769053,-3.692259 h 5.638097 5.638097 l -0.244375,0.322196 c -0.367054,0.483942 -5.373093,6.928366 -5.437717,7.000135 -0.0308,0.0342 -1.30207,-1.599329 -2.825049,-3.630072 z"
   id="path18889" /><path
   style="fill:#ffff00;stroke-width:1.5;stroke-linejoin:bevel;stroke:#000000;stroke-opacity:1;stroke-dasharray:none"
   d="m 17.420412,14.584725 c 0.04721,-0.05907 1.294799,-1.673269 2.772412,-3.587112 1.477612,-1.9138422 2.714034,-3.510866 2.747603,-3.5489414 0.04747,-0.053846 5.346495,6.6779704 5.617221,7.1360534 0.05051,0.08547 -1.088611,0.107399 -5.579804,0.107399 -4.503125,0 -5.625933,-0.0217 -5.557432,-0.107399 z"
   id="path18891" /></svg>
