<?xml version="1.0" encoding="UTF-8" standalone="no"?>
<!-- Generator: Adobe Illustrator 23.0.1, SVG Export Plug-In . SVG Version: 6.00 Build 0)  -->

<svg
   version="1.1"
   x="0px"
   y="0px"
   width="45.7px"
   height="72px"
   viewBox="0 0 45.7 72"
   enable-background="new 0 0 45.7 72"
   xml:space="preserve"
   id="svg16"
   sodipodi:docname="real-starboard.svg"
   inkscape:version="1.2.2 (b0a8486541, 2022-12-01)"
   xmlns:inkscape="http://www.inkscape.org/namespaces/inkscape"
   xmlns:sodipodi="http://sodipodi.sourceforge.net/DTD/sodipodi-0.dtd"
   xmlns="http://www.w3.org/2000/svg"
   xmlns:svg="http://www.w3.org/2000/svg"><defs
   id="defs20">
	
	
</defs><sodipodi:namedview
   id="namedview18"
   pagecolor="#ffffff"
   bordercolor="#000000"
   borderopacity="0.25"
   inkscape:showpageshadow="2"
   inkscape:pageopacity="0.0"
   inkscape:pagecheckerboard="0"
   inkscape:deskcolor="#d1d1d1"
   showgrid="false"
   inkscape:zoom="8.2299373"
   inkscape:cx="-27.096197"
   inkscape:cy="19.684233"
   inkscape:window-width="1920"
   inkscape:window-height="1008"
   inkscape:window-x="0"
   inkscape:window-y="1080"
   inkscape:window-maximized="1"
   inkscape:current-layer="svg16" />
<g
   id="Layer_2">
	<g
   id="g4">
		<path
   d="M22.9,28.9l19.8,19.8L22.9,68.6L3,48.8L22.9,28.9 M22.9,25.9L0,48.8l22.9,22.9l22.9-22.9L22.9,25.9L22.9,25.9z"
   id="path2" />
	</g>
	<g
   id="g8">
		<path
   d="M23.7,42v5.8h5.5v1.5h-5.5v5.8h-1.6v-5.8h-5.5v-1.5h5.5V42H23.7z"
   id="path6" />
	</g>
</g>

<path
   style="fill:none;stroke:#ffffff;stroke-width:0.131192;stroke-linejoin:bevel"
   d="M 12.992098,58.671607 C 7.5712653,53.269439 3.1263566,48.829066 3.1145236,48.804111 3.1026906,48.779158 7.549054,44.302821 12.995332,38.856697 l 9.902322,-9.902044 9.872561,9.872841 9.872562,9.872842 -9.829742,9.867016 c -5.406358,5.426858 -9.860146,9.880372 -9.897309,9.896698 -0.03716,0.01632 -4.502795,-4.390274 -9.923628,-9.792443 z m 10.721506,-6.432944 v -2.921241 h 2.749403 2.749404 v -0.773269 -0.77327 h -2.749404 -2.749403 v -2.921241 -2.921241 h -0.816229 -0.816229 v 2.921241 2.921241 h -2.749404 -2.749403 v 0.77327 0.773269 h 2.749403 2.749404 v 2.921241 2.921242 h 0.816229 0.816229 z"
   id="path387" /><path
   style="fill:#ffff00;stroke-width:0;stroke-linejoin:bevel"
   d="M 13.007479,58.701365 3.1107728,48.87254 3.50633,48.403646 c 0.2175564,-0.257891 4.6881791,-4.733811 9.934717,-9.946488 l 9.53916,-9.477593 9.831491,9.842116 9.831492,9.842116 -9.869503,9.933196 -9.869503,9.933197 z m 10.808012,-6.453093 v -2.916183 h 2.733922 2.733921 V 48.54229 47.75249 H 26.551612 23.81989 l -0.03258,-2.885805 -0.03258,-2.885806 -0.880931,-0.0357 -0.88093,-0.0357 v 2.921506 2.921505 H 19.31971 16.646542 v 0.7898 0.789799 h 2.673168 2.673167 v 2.916183 2.916183 h 0.911307 0.911307 z"
   id="path5682" /><path
   style="fill:#ffff00;stroke:#000000;stroke-width:1.5;stroke-linejoin:bevel;stroke-dasharray:none;stroke-opacity:1"
   d="m 18.544303,22.340935 c 0.679051,-0.885486 1.924782,-2.522986 2.768292,-3.638887 0.843509,-1.115901 1.568781,-2.031765 1.611714,-2.035252 0.06763,-0.0055 5.252438,6.722894 5.496008,7.132231 0.07177,0.120618 -1.06253,0.151884 -5.510137,0.151884 h -5.600514 z"
   id="path5684" /><path
   style="fill:#008000;stroke:#000000;stroke-width:0.182261;stroke-linejoin:bevel"
   d="M 13.062108,58.660912 3.220032,48.884377 3.6703591,48.334813 C 4.1167953,47.789996 22.78139,29.250614 22.942327,29.192132 c 0.04608,-0.01675 4.472141,4.358158 9.835681,9.722009 l 9.751892,9.752457 -9.812857,9.885424 -9.812859,9.885425 z m 10.753383,-6.41264 v -2.916183 h 2.733921 2.733922 v -0.787475 -0.787475 l -2.703545,-0.0327 -2.703544,-0.0327 -0.03255,-2.876282 -0.03255,-2.876282 -0.909413,-0.0399 -0.909414,-0.0399 2.43e-4,2.94656 2.43e-4,2.946559 H 19.31963 16.646462 v 0.7898 0.789799 h 2.673168 2.673167 v 2.916183 2.916182 h 0.911307 0.911307 v -2.916182 z"
   id="path832" /><path
   style="fill:#008000;stroke:#000000;stroke-width:0.182261;stroke-linejoin:bevel"
   d="m 19.152893,22.934561 c 0.09304,-0.156086 3.529761,-4.688927 3.692418,-4.870097 0.04984,-0.05551 0.924471,0.983382 1.943634,2.308644 1.019163,1.325263 1.907241,2.477917 1.973508,2.561453 0.09587,0.120857 -0.678321,0.151885 -3.789808,0.151885 -3.095517,0 -3.891427,-0.03165 -3.819752,-0.151885 z"
   id="path834" /></svg>
