<?xml version="1.0" encoding="UTF-8" standalone="no"?>
<!-- Generator: Adobe Illustrator 23.0.1, SVG Export Plug-In . SVG Version: 6.00 Build 0)  -->

<svg
   version="1.1"
   x="0px"
   y="0px"
   width="45.7px"
   height="72px"
   viewBox="0 0 45.7 72"
   enable-background="new 0 0 45.7 72"
   xml:space="preserve"
   id="svg16"
   sodipodi:docname="real-port.svg"
   inkscape:version="1.2.2 (b0a8486541, 2022-12-01)"
   xmlns:inkscape="http://www.inkscape.org/namespaces/inkscape"
   xmlns:sodipodi="http://sodipodi.sourceforge.net/DTD/sodipodi-0.dtd"
   xmlns="http://www.w3.org/2000/svg"
   xmlns:svg="http://www.w3.org/2000/svg"><defs
   id="defs20">
	
	
</defs><sodipodi:namedview
   id="namedview18"
   pagecolor="#ffffff"
   bordercolor="#000000"
   borderopacity="0.25"
   inkscape:showpageshadow="2"
   inkscape:pageopacity="0.0"
   inkscape:pagecheckerboard="0"
   inkscape:deskcolor="#d1d1d1"
   showgrid="false"
   inkscape:zoom="8.2299375"
   inkscape:cx="25.152074"
   inkscape:cy="20.534785"
   inkscape:window-width="1920"
   inkscape:window-height="1008"
   inkscape:window-x="0"
   inkscape:window-y="1080"
   inkscape:window-maximized="1"
   inkscape:current-layer="svg16" />
<g
   id="Layer_2">
	<g
   id="g4">
		<path
   d="M22.9,28.9l19.8,19.8L22.9,68.6L3,48.8L22.9,28.9 M22.9,25.9L0,48.8l22.9,22.9l22.9-22.9L22.9,25.9L22.9,25.9z"
   id="path2" />
	</g>
	<g
   id="g8">
		<path
   d="M23.7,42v5.8h5.5v1.5h-5.5v5.8h-1.6v-5.8h-5.5v-1.5h5.5V42H23.7z"
   id="path6" />
	</g>
</g>

<path
   style="fill:none;stroke:#ffffff;stroke-width:0.131192;stroke-linejoin:bevel"
   d="M 12.992098,58.671607 C 7.5712653,53.269439 3.1263566,48.829066 3.1145236,48.804111 3.1026906,48.779158 7.549054,44.302821 12.995332,38.856697 l 9.902322,-9.902044 9.872561,9.872841 9.872562,9.872842 -9.829742,9.867016 c -5.406358,5.426858 -9.860146,9.880372 -9.897309,9.896698 -0.03716,0.01632 -4.502795,-4.390274 -9.923628,-9.792443 z m 10.721506,-6.432944 v -2.921241 h 2.749403 2.749404 v -0.773269 -0.77327 h -2.749404 -2.749403 v -2.921241 -2.921241 h -0.816229 -0.816229 v 2.921241 2.921241 h -2.749404 -2.749403 v 0.77327 0.773269 h 2.749403 2.749404 v 2.921241 2.921242 h 0.816229 0.816229 z"
   id="path387" /><rect
   style="fill:#000000;fill-opacity:1;stroke-width:0;stroke-linejoin:bevel"
   id="rect946"
   width="11.530267"
   height="13.05794"
   x="17.241121"
   y="11.188236" /><path
   style="fill:#ff00ff;stroke-width:0;stroke-linejoin:bevel"
   d="M 13.007478,58.701363 3.1107727,48.872539 3.5063299,48.403645 c 0.2175564,-0.257892 4.688179,-4.733812 9.9347171,-9.946488 l 9.539159,-9.477593 9.831492,9.842116 9.831491,9.842116 -9.869503,9.933196 -9.869502,9.933195 z M 23.815491,52.24827 v -2.916182 h 2.733921 2.733921 v -0.7898 -0.789799 h -2.731722 -2.731722 l -0.03258,-2.885806 -0.03258,-2.885805 -0.88093,-0.0357 -0.88093,-0.0357 v 2.921506 2.921506 h -2.673168 -2.673167 v 0.789799 0.7898 h 2.673167 2.673168 v 2.916182 2.916183 h 0.911307 0.911307 z"
   id="path1673" /><path
   style="fill:#ff00ff;stroke-width:0;stroke-linejoin:bevel;stroke:#000000;stroke-opacity:1"
   d="m 17.25408,17.74011 v -6.439903 h 5.710857 5.710858 v 6.439903 6.439904 H 22.964937 17.25408 Z"
   id="path1675" /><path
   style="fill:#ffff00;stroke:#000000;stroke-width:1.5;stroke-linejoin:bevel;stroke-opacity:1;stroke-dasharray:none"
   d="m 17.25408,17.74011 v -6.439903 h 5.710857 5.710858 v 6.439903 6.439904 H 22.964937 17.25408 Z"
   id="path2231" /><path
   style="fill:#ffff00;stroke:#000000;stroke-width:0.243015;stroke-linejoin:bevel;stroke-dasharray:none;stroke-opacity:1"
   d="M 13.062108,58.660911 3.2200319,48.884376 3.670359,48.334812 c 0.4464362,-0.544817 19.11103,-19.084199 19.271967,-19.142681 0.04608,-0.01675 4.472141,4.358158 9.835681,9.722009 l 9.751892,9.752457 -9.812857,9.885424 -9.812858,9.885425 z M 23.815491,52.24827 v -2.916182 h 2.733921 2.733921 v -0.787475 -0.787475 l -2.703544,-0.0327 -2.703545,-0.0327 -0.03255,-2.876282 -0.03255,-2.876282 -0.909413,-0.0399 -0.909414,-0.0399 2.43e-4,2.94656 2.43e-4,2.946559 h -2.673167 -2.673167 v 0.789799 0.7898 h 2.673167 2.673167 v 2.916182 2.916183 h 0.911307 0.911307 V 52.24827 Z"
   id="path5303" /><path
   style="fill:#ff0000;stroke:#000000;stroke-width:0.182261;stroke-linejoin:bevel"
   d="M 13.183575,58.51159 3.4629668,48.867237 5.0425656,47.26181 C 5.911345,46.378824 10.296075,41.997813 14.78641,37.526232 l 8.164245,-8.13015 9.663707,9.617301 9.663708,9.617301 -9.68092,9.767542 c -5.324505,5.372148 -9.68363,9.765331 -9.686943,9.762629 -0.0033,-0.0027 -4.380297,-4.344871 -9.726632,-9.649265 z m 10.753423,-6.141812 v -2.916183 h 2.733921 2.733922 v -0.894382 -0.894382 l -0.637915,-0.07662 c -0.350854,-0.04214 -1.549304,-0.0771 -2.663222,-0.07768 l -2.025309,-0.0011 -0.04032,-2.784743 c -0.02218,-1.531608 -0.0771,-2.821431 -0.122047,-2.866273 -0.04495,-0.04484 -0.523384,-0.111804 -1.063191,-0.148803 l -0.981467,-0.06727 v 2.9943 2.994298 h -2.673167 -2.673168 v 0.911307 0.911307 h 2.673168 2.673167 v 2.916183 2.916183 h 1.032815 1.032814 z"
   id="path449" /><path
   style="fill:#ff0000;stroke:#000000;stroke-width:0.182261;stroke-linejoin:bevel"
   d="m 18.104633,17.74011 v -5.589349 h 4.860304 4.860305 v 5.589349 5.58935 h -4.860305 -4.860304 z"
   id="path451" /></svg>
