<?xml version="1.0" encoding="UTF-8" standalone="no"?>
<!-- Generator: Adobe Illustrator 23.0.1, SVG Export Plug-In . SVG Version: 6.00 Build 0)  -->

<svg
   version="1.1"
   x="0px"
   y="0px"
   width="45.7px"
   height="72px"
   viewBox="0 0 45.7 72"
   enable-background="new 0 0 45.7 72"
   xml:space="preserve"
   id="svg16"
   sodipodi:docname="real-west.svg"
   inkscape:version="1.2.2 (b0a8486541, 2022-12-01)"
   xmlns:inkscape="http://www.inkscape.org/namespaces/inkscape"
   xmlns:sodipodi="http://sodipodi.sourceforge.net/DTD/sodipodi-0.dtd"
   xmlns="http://www.w3.org/2000/svg"
   xmlns:svg="http://www.w3.org/2000/svg"><defs
   id="defs20" /><sodipodi:namedview
   id="namedview18"
   pagecolor="#ffffff"
   bordercolor="#000000"
   borderopacity="0.25"
   inkscape:showpageshadow="2"
   inkscape:pageopacity="0.0"
   inkscape:pagecheckerboard="0"
   inkscape:deskcolor="#d1d1d1"
   showgrid="false"
   inkscape:zoom="16.459875"
   inkscape:cx="17.16295"
   inkscape:cy="29.161826"
   inkscape:window-width="1920"
   inkscape:window-height="1008"
   inkscape:window-x="0"
   inkscape:window-y="0"
   inkscape:window-maximized="1"
   inkscape:current-layer="svg16" />
<g
   id="Layer_2">
	<g
   id="g4">
		<path
   d="M22.9,28.9l19.8,19.8L22.9,68.6L3,48.8L22.9,28.9 M22.9,25.9L0,48.8l22.9,22.9l22.9-22.9L22.9,25.9L22.9,25.9z"
   id="path2" />
	</g>
	<g
   id="g8">
		<path
   d="M23.7,42v5.8h5.5v1.5h-5.5v5.8h-1.6v-5.8h-5.5v-1.5h5.5V42H23.7z"
   id="path6" />
	</g>
</g>

<path
   style="fill:none;stroke:#ffffff;stroke-width:0.131192;stroke-linejoin:bevel"
   d="M 12.992098,58.671607 C 7.5712653,53.269439 3.1263566,48.829066 3.1145236,48.804111 3.1026906,48.779158 7.549054,44.302821 12.995332,38.856697 l 9.902322,-9.902044 9.872561,9.872841 9.872562,9.872842 -9.829742,9.867016 c -5.406358,5.426858 -9.860146,9.880372 -9.897309,9.896698 -0.03716,0.01632 -4.502795,-4.390274 -9.923628,-9.792443 z m 10.721506,-6.432944 v -2.921241 h 2.749403 2.749404 v -0.773269 -0.77327 h -2.749404 -2.749403 v -2.921241 -2.921241 h -0.816229 -0.816229 v 2.921241 2.921241 h -2.749404 -2.749403 v 0.77327 0.773269 h 2.749403 2.749404 v 2.921241 2.921242 h 0.816229 0.816229 z"
   id="path264" /><path
   style="fill:#ffff00;stroke-width:0;stroke-linejoin:bevel"
   d="m 12.930787,58.641683 -9.8806677,-9.828759 9.9235347,-9.929182 9.923534,-9.929181 9.874009,9.874009 9.87401,9.874009 -9.824259,9.887374 c -5.403343,5.438055 -9.865937,9.885824 -9.916876,9.883931 -0.05094,-0.0019 -4.538917,-4.426383 -9.973285,-9.832201 z m 10.782817,-6.40302 v -2.921241 h 2.749403 2.749403 v -0.77327 -0.773269 h -2.749403 -2.749403 v -2.921241 -2.921241 h -0.81623 -0.816229 v 2.921241 2.921241 h -2.749403 -2.749403 v 0.773269 0.77327 h 2.749403 2.749403 v 2.921241 2.921241 h 0.816229 0.81623 z"
   id="path3335" /><path
   style="fill:#ffff00;stroke-width:1.5;stroke-linejoin:bevel;stroke:#000000;stroke-opacity:1;stroke-dasharray:none"
   d="m 17.410343,24.121718 c 0.189664,-0.313976 5.549845,-7.281154 5.599775,-7.278603 0.0325,0.0017 0.977122,1.209895 2.099155,2.684964 1.122034,1.47507 2.388539,3.136241 2.814456,3.691491 l 0.774394,1.009547 h -5.676328 c -4.518384,0 -5.663093,-0.02191 -5.611452,-0.107399 z"
   id="path3337" /><path
   style="fill:#ffff00;stroke:#000000;stroke-width:1.5;stroke-linejoin:bevel;stroke-dasharray:none;stroke-opacity:1"
   d="m 20.396841,10.982577 -2.76009,-3.6300714 5.597722,-0.022106 c 3.078747,-0.012159 5.614117,-0.00571 5.634155,0.014327 0.03261,0.032609 -5.629626,7.2679234 -5.687754,7.2679234 -0.01317,0 -1.265983,-1.633532 -2.784033,-3.630073 z"
   id="path3702" /></svg>
