<?xml version="1.0" encoding="UTF-8" standalone="no"?>
<!-- Generator: Adobe Illustrator 23.0.1, SVG Export Plug-In . SVG Version: 6.00 Build 0)  -->

<svg
   version="1.1"
   id="Layer_2"
   x="0px"
   y="0px"
   width="45.7px"
   height="72px"
   viewBox="0 0 45.7 72"
   enable-background="new 0 0 45.7 72"
   xml:space="preserve"
   sodipodi:docname="virtual-special.svg"
   inkscape:version="1.2.2 (b0a8486541, 2022-12-01)"
   xmlns:inkscape="http://www.inkscape.org/namespaces/inkscape"
   xmlns:sodipodi="http://sodipodi.sourceforge.net/DTD/sodipodi-0.dtd"
   xmlns="http://www.w3.org/2000/svg"
   xmlns:svg="http://www.w3.org/2000/svg"><defs
   id="defs28094" /><sodipodi:namedview
   id="namedview28092"
   pagecolor="#ffffff"
   bordercolor="#000000"
   borderopacity="0.25"
   inkscape:showpageshadow="2"
   inkscape:pageopacity="0.0"
   inkscape:pagecheckerboard="0"
   inkscape:deskcolor="#d1d1d1"
   showgrid="false"
   inkscape:zoom="11.638889"
   inkscape:cx="20.792363"
   inkscape:cy="36"
   inkscape:window-width="1920"
   inkscape:window-height="1008"
   inkscape:window-x="0"
   inkscape:window-y="0"
   inkscape:window-maximized="1"
   inkscape:current-layer="layer12" />

<g
   id="g28085">
	<path
   d="M23.7,42v5.8h5.5v1.5h-5.5v5.8h-1.6v-5.8h-5.5v-1.5h5.5V42H23.7z"
   id="path28083" />
</g>

<g
   inkscape:groupmode="layer"
   id="layer13"
   inkscape:label="Layer 2"><path
     style="fill:#ffff00;stroke-width:0;stroke-linejoin:bevel"
     d="M 11.206271,60.2801 -0.37298437,48.797515 11.231388,37.221913 22.835761,25.646312 34.36477,37.139074 c 6.340955,6.321018 11.517661,11.522128 11.503794,11.558023 -0.04398,0.113823 -22.952946,23.071671 -23.01945,23.068561 -0.03497,-0.0016 -5.274252,-5.170136 -11.642843,-11.485558 z m 12.636493,-7.482436 v -3.412767 h 3.222053 3.222055 V 48.481518 47.578139 H 27.064817 23.842764 V 44.165372 40.752606 H 22.835871 21.82898 v 3.412766 3.412767 h -3.222053 -3.222055 v 0.903379 0.903379 h 3.222055 3.222053 v 3.412767 3.412767 h 1.006891 1.006893 z"
     id="path20380" /></g><g
   inkscape:groupmode="layer"
   id="layer12"
   inkscape:label="Layer 1"><g
     id="g28081">
	<path
   fill="#231F20"
   d="M22.9,25.9C22.9,25.9,22.8,25.9,22.9,25.9L22.9,25.9c-0.1,0.1-0.2,0.2-0.2,0.2l0,0c0,0,0,0,0,0l0,0   c0,0,0,0,0,0l0,0c0,0,0,0,0,0l0,0c0,0,0,0,0,0l0,0c0,0,0,0,0,0l0,0c0,0,0,0,0,0l0,0c0,0,0,0,0,0l0,0c0,0,0,0,0,0l0,0c0,0,0,0,0,0   l0,0c0,0,0,0,0,0l0,0c0,0,0,0,0,0l0,0c0,0,0,0,0,0l0,0c0,0,0,0,0,0l0,0c0,0,0,0,0,0l0,0c0,0,0,0,0,0l0,0c0,0,0,0,0,0l0,0   c0,0,0,0,0,0l0,0c0,0,0,0,0,0l0,0c0,0,0,0,0,0l0,0c0,0,0,0,0,0l0,0c0,0,0,0,0,0l0,0c0,0,0,0,0,0l0,0c0,0,0,0,0,0l0,0c0,0,0,0,0,0   l0,0c0,0,0,0,0,0l0,0c0,0,0,0,0,0l0,0c0,0,0,0,0,0l0,0c0,0,0,0,0,0l0,0c0,0,0,0,0,0l0,0c0,0,0,0,0,0l0,0c0,0,0,0,0,0l0,0   c0,0,0,0,0,0l0,0c0,0,0,0,0,0l0,0c0,0,0,0,0,0l0,0c0,0,0,0,0,0l0,0c0,0,0,0,0,0l0,0c0,0,0,0,0,0l0,0c0,0,0,0,0,0l0,0c0,0,0,0,0,0   l0,0c0,0,0,0,0,0l0,0c0,0,0,0,0,0l0,0c0,0,0,0,0,0l0,0c0,0,0,0,0,0l0,0c0,0,0,0,0,0l0,0c0,0,0,0,0,0l0,0c0,0,0,0,0,0l0,0   c0,0,0,0,0,0l0,0c0,0,0,0,0,0l0,0c0,0,0,0,0,0l0,0c0,0,0,0,0,0l0,0c0,0,0,0,0,0l0,0c0,0,0,0,0,0l0,0c0,0,0,0,0,0l0,0c0,0,0,0,0,0   l0,0c0,0,0,0,0,0l0,0c0,0,0,0,0,0l0,0c0,0,0,0,0,0l0,0c0,0,0,0,0,0l0,0c0,0,0,0,0,0l0,0c0,0,0,0,0,0l0,0c0,0,0,0,0,0l0,0   c0,0,0,0,0,0l0,0c0,0,0,0,0,0l0,0c0,0,0,0,0,0l0,0c0,0,0,0,0,0l0,0c0,0,0,0,0,0l0,0c0,0,0,0,0,0l0,0c0,0,0,0,0,0l0,0l0,0l0,0   c0,0,0,0,0,0l0,0c0,0,0,0,0,0l-0.1,0.1l0,0l0,0c0,0,0,0,0,0l-0.1,0.1c0,0,0,0,0,0l0,0l0,0L20.7,28l1.5,1.5l0.6-0.6l0.9,0.9l1.5-1.5   L22.9,25.9L22.9,25.9z M18.6,30.1l-0.4,0.4c0,0,0,0,0,0l0,0c0,0,0,0,0,0l0,0c0,0,0,0,0,0l0,0c0,0,0,0,0,0l0,0   c-0.6,0.6-1.7,1.7-1.7,1.7l1.5,1.5l2.1-2.1L18.6,30.1L18.6,30.1z M14.4,34.4c0,0-0.7,0.7-1.3,1.3l0,0c0,0,0,0,0,0l0,0c0,0,0,0,0,0   l0,0c0,0,0,0,0,0l0,0c0,0,0,0,0,0l-0.8,0.8l1.5,1.5l2.1-2.1L14.4,34.4L14.4,34.4z M10.1,38.6l-1.3,1.3c0,0,0,0,0,0l0,0c0,0,0,0,0,0   l0,0c0,0,0,0,0,0l0,0C8.4,40.3,8,40.7,8,40.7l1.5,1.5l2.1-2.1L10.1,38.6L10.1,38.6z M5.9,42.9L3.8,45l1.5,1.5l2.1-2.1L5.9,42.9   L5.9,42.9z M1.7,47.1c0,0-0.1,0.1-0.1,0.1l0,0L0,48.8l0,0l0,0l0,0l0,0l0,0l0,0l0,0l0,0l0,0l0,0l0,0l0,0l0,0l0,0l1.5,1.5l1.7-1.7   L1.7,47.1L1.7,47.1z M4.1,49.8l-1.5,1.5l2.1,2.1L6.2,52L4.1,49.8L4.1,49.8z M8.3,54.1l-1.5,1.5l2.1,2.1l1.5-1.5L8.3,54.1L8.3,54.1z    M12.6,58.3l-1.5,1.5l2.1,2.1l1.5-1.5L12.6,58.3L12.6,58.3z M16.8,62.6l-1.5,1.5l2.1,2.1l1.5-1.5L16.8,62.6L16.8,62.6z M21.1,66.8   l-1.5,1.5l2.1,2.1l0.9-0.9l1.2,1.2l2.1-2.1l-1.5-1.5l-1.5,1.5L21.1,66.8L21.1,66.8z M28.6,62.8L26.5,65l1.5,1.5l2.1-2.1L28.6,62.8   L28.6,62.8z M32.9,58.6l-2.1,2.1l1.5,1.5l2.1-2.1L32.9,58.6L32.9,58.6z M37.1,54.3L35,56.5l1.5,1.5l2.1-2.1L37.1,54.3L37.1,54.3z    M41.4,50.1l-2.1,2.1l1.5,1.5l2.1-2.1L41.4,50.1L41.4,50.1z M44.2,47.3l0.1,0.1l0,0L44.2,47.3L43.5,48l0.1,0.1l-0.8,0.8l1.4,1.4   l0.8-0.8l0,0l-0.8,0.8l0.8-0.8l0,0l0,0l0,0l0,0l0.1-0.1l0,0l0.1-0.1l0,0l0.1-0.1l0,0l0.1-0.1l0,0l0.1-0.1l0,0l0.1-0.1l0,0l0,0l0,0   l0,0l0,0l0,0l0,0l0,0l0,0l0,0l0,0l0,0l0,0l0,0l0,0l0,0l0,0l0,0l-0.1-0.1l0,0l-0.2-0.2l0,0l-0.2-0.2l0,0L45,48.1l0,0l-0.3-0.3l0,0   l-0.2-0.2l0,0l-0.2-0.2l0,0l-0.1-0.1l0,0l0,0L44.2,47.3L44.2,47.3z M44.4,47.4L44.4,47.4L44.4,47.4L44.4,47.4L44.4,47.4z    M44.4,47.4l0.2,0.2l0,0L44.4,47.4L44.4,47.4z M44.6,47.6l0.2,0.2l0,0L44.6,47.6L44.6,47.6z M44.8,47.8l0.3,0.3l0,0L44.8,47.8   L44.8,47.8z M45,48.1l0.3,0.3l0,0L45,48.1L45,48.1z M45.3,48.3l0.2,0.2l0,0L45.3,48.3L45.3,48.3z M45.5,48.6l0.2,0.2l0,0L45.5,48.6   L45.5,48.6z M45.7,48.7L45.7,48.7L45.7,48.7L45.7,48.7L45.7,48.7z M45.7,48.8L45.7,48.8L45.7,48.8L45.7,48.8L45.7,48.8z M45.7,48.8   L45.7,48.8L45.7,48.8L45.7,48.8L45.7,48.8z M45.6,48.9L45.5,49l0,0L45.6,48.9L45.6,48.9z M45.5,49l-0.1,0.1l0,0L45.5,49L45.5,49z    M45.4,49.1l-0.1,0.1l0,0L45.4,49.1L45.4,49.1z M45.2,49.3l-0.1,0.1l0,0L45.2,49.3L45.2,49.3z M45.1,49.4L45.1,49.4L45.1,49.4   L45.1,49.4L45.1,49.4z M45,49.5L45,49.5L45,49.5L45,49.5L45,49.5z M40.1,43.1l-1.5,1.5l2.1,2.1l1.5-1.5c0,0-0.2-0.2-0.4-0.4l0,0   c0,0,0,0,0,0l0,0c0,0,0,0,0,0l0,0c0,0,0,0,0,0l0,0c0,0,0,0,0,0l0,0c0,0,0,0,0,0L40.1,43.1L40.1,43.1z M35.9,38.9l-1.5,1.5l2.1,2.1   L38,41l-1.2-1.2c0,0,0,0,0,0l0,0c0,0,0,0,0,0l0,0c0,0,0,0,0,0l0,0c0,0,0,0,0,0l0,0c0,0,0,0,0,0l0,0C36.3,39.3,35.9,38.9,35.9,38.9   L35.9,38.9z M31.6,34.7l-1.5,1.5l2.1,2.1l1.5-1.5L31.6,34.7L31.6,34.7z M27.4,30.4l-1.5,1.5L28,34l1.5-1.5L27.4,30.4L27.4,30.4z"
   id="path28079" />
</g><path
     style="fill:#ffff00;stroke:#000000;stroke-width:1;stroke-linejoin:bevel;stroke-dasharray:none;stroke-opacity:1"
     d="m 18.997379,19.912805 c 0.92448,-1.38222 1.750036,-2.603078 1.83457,-2.713019 0.153235,-0.19929 0.14866,-0.207448 -1.518016,-2.706443 l -1.671715,-2.506552 1.690973,-0.02335 c 1.07054,-0.01478 1.723249,0.0089 1.778939,0.06462 0.04838,0.04838 0.481224,0.774162 0.961872,1.612846 0.480649,0.838684 0.907799,1.516753 0.949224,1.506819 0.04143,-0.0099 0.461952,-0.733675 0.934506,-1.608314 l 0.859189,-1.590253 1.740934,-0.0027 1.740935,-0.0027 -0.204236,0.322196 c -0.112329,0.177207 -0.830226,1.288188 -1.595326,2.468846 -0.881284,1.359947 -1.376422,2.202738 -1.351068,2.299695 0.02201,0.08418 0.797419,1.307424 1.723127,2.718332 0.925707,1.410908 1.683104,2.58953 1.683104,2.619159 0,0.02963 -0.767902,0.05387 -1.706447,0.05387 H 25.141496 L 24.12002,20.752949 c -0.561812,-0.92014 -1.06014,-1.672386 -1.107395,-1.671656 -0.04726,7.3e-4 -0.545295,0.753572 -1.106755,1.672982 l -1.020835,1.671656 h -1.784264 -1.784263 z"
     id="path8632" /></g></svg>
