<?xml version="1.0" encoding="UTF-8" standalone="no"?>
<!-- Generator: Adobe Illustrator 23.0.1, SVG Export Plug-In . SVG Version: 6.00 Build 0)  -->

<svg
   version="1.1"
   x="0px"
   y="0px"
   width="45.7px"
   height="72px"
   viewBox="0 0 45.7 72"
   enable-background="new 0 0 45.7 72"
   xml:space="preserve"
   id="svg7803"
   sodipodi:docname="virtual-port.svg"
   inkscape:version="1.2.2 (b0a8486541, 2022-12-01)"
   xmlns:inkscape="http://www.inkscape.org/namespaces/inkscape"
   xmlns:sodipodi="http://sodipodi.sourceforge.net/DTD/sodipodi-0.dtd"
   xmlns="http://www.w3.org/2000/svg"
   xmlns:svg="http://www.w3.org/2000/svg"><defs
   id="defs7807">
	
	
</defs><sodipodi:namedview
   id="namedview7805"
   pagecolor="#ffffff"
   bordercolor="#000000"
   borderopacity="0.25"
   inkscape:showpageshadow="2"
   inkscape:pageopacity="0.0"
   inkscape:pagecheckerboard="0"
   inkscape:deskcolor="#d1d1d1"
   showgrid="false"
   inkscape:zoom="11.638889"
   inkscape:cx="13.661098"
   inkscape:cy="36"
   inkscape:window-width="1920"
   inkscape:window-height="1008"
   inkscape:window-x="0"
   inkscape:window-y="1080"
   inkscape:window-maximized="1"
   inkscape:current-layer="layer6" />


<g
   inkscape:groupmode="layer"
   id="layer7"
   inkscape:label="Layer 2"><path
     style="fill:#ffff00;stroke-width:0;stroke-linejoin:bevel"
     d="M 11.146257,60.408852 -0.43299807,48.926267 11.171374,37.350665 22.775747,25.775064 34.304756,37.267826 C 40.645711,43.588844 45.822417,48.789954 45.80855,48.825849 45.764566,48.939672 22.855604,71.89752 22.7891,71.89441 22.754133,71.892794 17.514848,66.724274 11.146257,60.408852 Z M 23.78275,52.926416 v -3.412767 h 3.222053 3.222055 V 48.61027 47.706891 H 27.004803 23.78275 v -3.412767 -3.412766 h -1.006893 -1.006891 v 3.412766 3.412767 h -3.222053 -3.222055 v 0.903379 0.903379 h 3.222055 3.222053 v 3.412767 3.412767 h 1.006891 1.006893 z"
     id="path20380" /><path
     style="fill:#ff0000;stroke:#000000;stroke-width:0.128878;stroke-linejoin:bevel"
     d="M 19.060276,68.16818 C 17.012208,66.142764 11.806672,60.98772 7.4924192,56.712526 l -7.84409615,-7.773078 4.13284735,-4.133506 4.1328474,-4.133508 0.7865377,0.802046 0.7865373,0.802045 1.0559762,-1.053442 c 0.580787,-0.579392 1.055976,-1.095064 1.055976,-1.145937 0,-0.05087 -0.340241,-0.418758 -0.756091,-0.817519 l -0.75609,-0.725021 3.166513,-3.184117 3.166512,-3.184117 0.786585,0.802093 0.786585,0.802093 1.055977,-1.053441 c 0.580786,-0.579392 1.055976,-1.095354 1.055976,-1.14658 0,-0.05123 -0.340724,-0.426555 -0.757164,-0.834064 l -0.757162,-0.740924 1.019607,-1.019607 1.019607,-1.019607 0.7865,0.802006 0.786498,0.802006 0.302217,-0.302216 0.302215,-0.302216 0.453713,0.448078 0.453714,0.448078 0.772918,-0.769337 0.772918,-0.769337 1.030623,1.027938 1.030623,1.027938 -0.750504,0.753998 -0.750504,0.753997 1.093671,1.093671 1.093671,1.093671 0.753998,-0.750504 0.753997,-0.750504 1.027938,1.030623 1.027938,1.030623 -0.770595,0.774181 -0.770594,0.774182 1.093671,1.093671 1.093671,1.09367 0.774181,-0.770594 0.774182,-0.770594 1.030622,1.027937 1.030623,1.027939 -0.750503,0.753997 -0.750504,0.753997 1.094261,1.094262 1.094261,1.094261 0.750935,-0.750935 0.750935,-0.750934 1.010319,1.007687 1.01032,1.007689 -0.750504,0.753997 -0.750503,0.753997 1.09367,1.093671 1.093672,1.093671 0.754026,-0.750533 0.754026,-0.750533 0.984013,0.986812 0.984011,0.98681 -0.362649,0.369514 c -0.199459,0.203232 -0.362651,0.405251 -0.362651,0.448929 0,0.04368 -0.163083,0.245583 -0.362406,0.448678 l -0.362406,0.369265 0.706082,0.709768 c 0.388344,0.390372 0.706081,0.741717 0.706081,0.780767 0,0.03905 -0.258929,0.339201 -0.575397,0.667005 l -0.575396,0.596008 -0.79951,-0.796186 -0.79951,-0.796185 -1.075958,1.072492 -1.075959,1.072493 0.801812,0.791066 0.801813,0.791067 -1.083592,1.081187 -1.083591,1.081186 -0.753907,-0.819748 c -0.414649,-0.450861 -0.7838,-0.819747 -0.820336,-0.819747 -0.07956,0 -1.849873,1.786082 -2.041534,2.059715 -0.129779,0.185287 -0.110748,0.215058 0.583731,0.913164 0.394836,0.396898 0.776153,0.721632 0.84737,0.721632 0.07122,0 -0.352575,0.483221 -0.941759,1.073823 l -1.071246,1.073824 -0.796405,-0.793094 -0.796405,-0.793094 -1.075958,1.072493 -1.07596,1.072492 0.801812,0.791067 0.801813,0.791067 -1.07938,1.076984 -1.07938,1.076984 -0.757213,-0.815545 c -0.416468,-0.44855 -0.802873,-0.81099 -0.858679,-0.805421 -0.05581,0.0056 -0.562363,0.493386 -1.125681,1.084041 l -1.024213,1.073916 0.814325,0.802514 0.814325,0.802516 -1.036845,1.034356 -1.036845,1.034356 -0.793823,-0.793823 -0.793822,-0.793822 -0.750799,0.750798 -0.750799,0.750799 -0.904754,-0.901948 -0.904754,-0.901948 -0.770131,0.773715 -0.770131,0.773716 1.070456,1.073031 1.070454,1.073031 0.451008,-0.445405 0.451008,-0.445406 0.63223,0.61304 0.63223,0.613039 -0.536484,0.531716 -0.536484,0.531716 z m -1.189154,-4.545269 -1.072116,-1.074695 -0.773269,0.773269 -0.77327,0.77327 1.072115,1.074695 1.072115,1.074696 0.77327,-0.77327 0.77327,-0.77327 z m -4.210024,-4.295943 -1.072115,-1.074695 -0.77327,0.77327 -0.77327,0.773269 1.072115,1.074696 1.072116,1.074695 0.773269,-0.77327 0.77327,-0.773269 z M 9.6855559,57.030536 c 0.3908441,-0.388814 0.7106251,-0.747031 0.7106251,-0.796039 0,-0.04901 -0.4743105,-0.562276 -1.054023,-1.140597 L 8.2881356,54.042407 7.5179233,54.816205 6.7477112,55.590002 7.818867,56.663736 c 0.5891357,0.590553 1.09026,1.073734 1.1136101,1.073734 0.023349,0 0.3622348,-0.318121 0.7530788,-0.706934 z M 23.799522,52.968973 v -3.393794 h 3.221957 3.221957 V 48.630071 47.684964 H 27.021479 23.799522 V 44.24821 40.811455 H 22.768496 21.73747 v 3.436755 3.436754 h -3.221957 -3.221957 v 0.945107 0.945108 h 3.221957 3.221957 v 3.393794 3.393795 h 1.031026 1.031026 z M 5.5319497,52.699429 6.2766155,52.000291 5.185444,50.867671 4.0942724,49.73505 3.3153746,50.513949 2.5364769,51.292846 3.6085596,52.367509 c 0.5896456,0.591065 1.0960771,1.064852 1.1254035,1.05286 0.029326,-0.01199 0.3884203,-0.336414 0.7979866,-0.72094 z m -3.0398532,-4.883976 -0.773776,-0.773777 -0.8794809,0.879481 -0.87948084,0.879481 0.77048075,0.774068 0.77048079,0.774067 0.8827761,-0.879772 0.8827762,-0.879772 z m 4.2098244,-4.210223 -0.7736794,-0.77368 -1.0942778,1.094278 -1.0942779,1.094278 0.7706678,0.774255 0.7706679,0.774255 1.0972893,-1.094854 1.0972893,-1.094853 z m 9.1930671,-7.734716 c 0,-0.04901 -0.328972,-0.416369 -0.73105,-0.816358 l -0.73105,-0.727252 -1.093618,1.093618 -1.093618,1.093618 0.770645,0.774232 0.770645,0.774232 1.054023,-1.051493 c 0.579712,-0.578321 1.054023,-1.091589 1.054023,-1.140597 z"
     id="path441" /><path
     style="fill:#ff0000;stroke:#000000;stroke-width:0.128878;stroke-linejoin:bevel"
     d="M 17.871122,17.785203 V 12.02864 h 4.983293 4.983294 v 5.756563 5.756563 h -4.983294 -4.983293 z"
     id="path443" /><path
     style="fill:#ff0000;stroke:#000000;stroke-width:0.128878;stroke-linejoin:bevel"
     d="M 17.871122,17.785203 V 12.02864 h 4.983293 4.983294 v 5.756563 5.756563 h -4.983294 -4.983293 z"
     id="path445" /></g><g
   inkscape:groupmode="layer"
   id="layer6"
   inkscape:label="Layer 1"><g
     id="Layer_2">
	<g
   id="g7791">
		<path
   d="M22.9,25.9C22.9,25.9,22.8,25.9,22.9,25.9L22.9,25.9c-0.1,0.1-0.2,0.2-0.2,0.2l0,0c0,0,0,0,0,0l0,0c0,0,0,0,0,0l0,0    c0,0,0,0,0,0l0,0c0,0,0,0,0,0l0,0c0,0,0,0,0,0l0,0c0,0,0,0,0,0l0,0c0,0,0,0,0,0l0,0c0,0,0,0,0,0l0,0c0,0,0,0,0,0l0,0c0,0,0,0,0,0    l0,0c0,0,0,0,0,0l0,0c0,0,0,0,0,0l0,0c0,0,0,0,0,0l0,0c0,0,0,0,0,0l0,0c0,0,0,0,0,0l0,0c0,0,0,0,0,0l0,0c0,0,0,0,0,0l0,0    c0,0,0,0,0,0l0,0c0,0,0,0,0,0l0,0c0,0,0,0,0,0l0,0c0,0,0,0,0,0l0,0c0,0,0,0,0,0l0,0c0,0,0,0,0,0l0,0c0,0,0,0,0,0l0,0c0,0,0,0,0,0    l0,0c0,0,0,0,0,0l0,0c0,0,0,0,0,0l0,0c0,0,0,0,0,0l0,0c0,0,0,0,0,0l0,0c0,0,0,0,0,0l0,0c0,0,0,0,0,0l0,0c0,0,0,0,0,0l0,0    c0,0,0,0,0,0l0,0c0,0,0,0,0,0l0,0c0,0,0,0,0,0l0,0c0,0,0,0,0,0l0,0c0,0,0,0,0,0l0,0c0,0,0,0,0,0l0,0c0,0,0,0,0,0l0,0c0,0,0,0,0,0    l0,0c0,0,0,0,0,0l0,0c0,0,0,0,0,0l0,0c0,0,0,0,0,0l0,0c0,0,0,0,0,0l0,0c0,0,0,0,0,0l0,0c0,0,0,0,0,0l0,0c0,0,0,0,0,0l0,0    c0,0,0,0,0,0l0,0c0,0,0,0,0,0l0,0c0,0,0,0,0,0l0,0c0,0,0,0,0,0l0,0c0,0,0,0,0,0l0,0c0,0,0,0,0,0l0,0c0,0,0,0,0,0l0,0c0,0,0,0,0,0    l0,0c0,0,0,0,0,0l0,0c0,0,0,0,0,0l0,0c0,0,0,0,0,0l0,0c0,0,0,0,0,0l0,0c0,0,0,0,0,0l0,0c0,0,0,0,0,0l0,0c0,0,0,0,0,0l0,0    c0,0,0,0,0,0l0,0c0,0,0,0,0,0l0,0c0,0,0,0,0,0l0,0c0,0,0,0,0,0l0,0c0,0,0,0,0,0l0,0c0,0,0,0,0,0l0,0l0,0l0,0c0,0,0,0,0,0l0,0    c0,0,0,0,0,0l-0.1,0.1l0,0l0,0c0,0,0,0,0,0l-0.1,0.1c0,0,0,0,0,0l0,0l0,0L20.7,28l1.5,1.5l0.6-0.6l0.9,0.9l1.5-1.5L22.9,25.9    L22.9,25.9z M18.6,30.1l-0.4,0.4c0,0,0,0,0,0l0,0c0,0,0,0,0,0l0,0c0,0,0,0,0,0l0,0c0,0,0,0,0,0l0,0c-0.6,0.6-1.7,1.7-1.7,1.7    l1.5,1.5l2.1-2.1L18.6,30.1L18.6,30.1z M14.4,34.4c0,0-0.7,0.7-1.3,1.3l0,0c0,0,0,0,0,0l0,0c0,0,0,0,0,0l0,0c0,0,0,0,0,0l0,0    c0,0,0,0,0,0l-0.8,0.8l1.5,1.5l2.1-2.1L14.4,34.4L14.4,34.4z M10.1,38.6l-1.3,1.3c0,0,0,0,0,0l0,0c0,0,0,0,0,0l0,0c0,0,0,0,0,0    l0,0C8.4,40.3,8,40.7,8,40.7l1.5,1.5l2.1-2.1L10.1,38.6L10.1,38.6z M5.9,42.9L3.8,45l1.5,1.5l2.1-2.1L5.9,42.9L5.9,42.9z     M1.7,47.1c0,0-0.1,0.1-0.1,0.1l0,0L0,48.8l0,0l0,0l0,0l0,0l0,0l0,0l0,0l0,0l0,0l0,0l0,0l0,0l0,0l0,0l1.5,1.5l1.7-1.7L1.7,47.1    L1.7,47.1z M4.1,49.8l-1.5,1.5l2.1,2.1L6.2,52L4.1,49.8L4.1,49.8z M8.3,54.1l-1.5,1.5l2.1,2.1l1.5-1.5L8.3,54.1L8.3,54.1z     M12.6,58.3l-1.5,1.5l2.1,2.1l1.5-1.5L12.6,58.3L12.6,58.3z M16.8,62.6l-1.5,1.5l2.1,2.1l1.5-1.5L16.8,62.6L16.8,62.6z M21.1,66.8    l-1.5,1.5l2.1,2.1l0.9-0.9l1.2,1.2l2.1-2.1l-1.5-1.5l-1.5,1.5L21.1,66.8L21.1,66.8z M28.6,62.8L26.5,65l1.5,1.5l2.1-2.1L28.6,62.8    L28.6,62.8z M32.9,58.6l-2.1,2.1l1.5,1.5l2.1-2.1L32.9,58.6L32.9,58.6z M37.1,54.3L35,56.5l1.5,1.5l2.1-2.1L37.1,54.3L37.1,54.3z     M41.4,50.1l-2.1,2.1l1.5,1.5l2.1-2.1L41.4,50.1L41.4,50.1z M44.2,47.3l0.1,0.1l0,0L44.2,47.3L43.5,48l0.1,0.1l-0.8,0.8l1.4,1.4    l0.8-0.8l0,0l-0.8,0.8l0.8-0.8l0,0l0,0l0,0l0,0l0.1-0.1l0,0l0.1-0.1l0,0l0.1-0.1l0,0l0.1-0.1l0,0l0.1-0.1l0,0l0.1-0.1l0,0l0,0l0,0    l0,0l0,0l0,0l0,0l0,0l0,0l0,0l0,0l0,0l0,0l0,0l0,0l0,0l0,0l0,0l-0.1-0.1l0,0l-0.2-0.2l0,0l-0.2-0.2l0,0L45,48.1l0,0l-0.3-0.3l0,0    l-0.2-0.2l0,0l-0.2-0.2l0,0l-0.1-0.1l0,0l0,0L44.2,47.3L44.2,47.3z M44.4,47.4L44.4,47.4L44.4,47.4L44.4,47.4L44.4,47.4z     M44.4,47.4l0.2,0.2l0,0L44.4,47.4L44.4,47.4z M44.6,47.6l0.2,0.2l0,0L44.6,47.6L44.6,47.6z M44.8,47.8l0.3,0.3l0,0L44.8,47.8    L44.8,47.8z M45,48.1l0.3,0.3l0,0L45,48.1L45,48.1z M45.3,48.3l0.2,0.2l0,0L45.3,48.3L45.3,48.3z M45.5,48.6l0.2,0.2l0,0    L45.5,48.6L45.5,48.6z M45.7,48.7L45.7,48.7L45.7,48.7L45.7,48.7L45.7,48.7z M45.7,48.8L45.7,48.8L45.7,48.8L45.7,48.8L45.7,48.8z     M45.7,48.8L45.7,48.8L45.7,48.8L45.7,48.8L45.7,48.8z M45.6,48.9L45.5,49l0,0L45.6,48.9L45.6,48.9z M45.5,49l-0.1,0.1l0,0    L45.5,49L45.5,49z M45.4,49.1l-0.1,0.1l0,0L45.4,49.1L45.4,49.1z M45.2,49.3l-0.1,0.1l0,0L45.2,49.3L45.2,49.3z M45.1,49.4    L45.1,49.4L45.1,49.4L45.1,49.4L45.1,49.4z M45,49.5L45,49.5L45,49.5L45,49.5L45,49.5z M40.1,43.1l-1.5,1.5l2.1,2.1l1.5-1.5    c0,0-0.2-0.2-0.4-0.4l0,0c0,0,0,0,0,0l0,0c0,0,0,0,0,0l0,0c0,0,0,0,0,0l0,0c0,0,0,0,0,0l0,0c0,0,0,0,0,0L40.1,43.1L40.1,43.1z     M35.9,38.9l-1.5,1.5l2.1,2.1L38,41l-1.2-1.2c0,0,0,0,0,0l0,0c0,0,0,0,0,0l0,0c0,0,0,0,0,0l0,0c0,0,0,0,0,0l0,0c0,0,0,0,0,0l0,0    C36.3,39.3,35.9,38.9,35.9,38.9L35.9,38.9z M31.6,34.7l-1.5,1.5l2.1,2.1l1.5-1.5L31.6,34.7L31.6,34.7z M27.4,30.4l-1.5,1.5L28,34    l1.5-1.5L27.4,30.4L27.4,30.4z"
   id="path7789" />
	</g>
	<g
   id="g7795">
		<path
   d="M23.7,42v5.8h5.5v1.5h-5.5v5.8h-1.6v-5.8h-5.5v-1.5h5.5V42H23.7z"
   id="path7793" />
	</g>
</g><rect
     style="fill:#ffff00;fill-opacity:1;stroke-width:1.5;stroke-linejoin:bevel;stroke:#000000;stroke-opacity:1;stroke-dasharray:none"
     id="rect946"
     width="11.530267"
     height="13.05794"
     x="17.105219"
     y="11.252041" /><path
     style="fill:#ff0000;stroke:#000000;stroke-width:0.128878;stroke-linejoin:bevel"
     d="M 17.871122,17.785203 V 12.02864 h 4.983293 4.983294 v 5.756563 5.756563 h -4.983294 -4.983293 z"
     id="path447" /></g></svg>
