<?xml version="1.0" encoding="UTF-8" standalone="no"?>
<!-- Generator: Adobe Illustrator 23.0.1, SVG Export Plug-In . SVG Version: 6.00 Build 0)  -->

<svg
   version="1.1"
   x="0px"
   y="0px"
   width="45.7px"
   height="72px"
   viewBox="0 0 45.7 72"
   enable-background="new 0 0 45.7 72"
   xml:space="preserve"
   id="svg16"
   sodipodi:docname="virtual-east.svg"
   inkscape:version="1.2.2 (b0a8486541, 2022-12-01)"
   xmlns:inkscape="http://www.inkscape.org/namespaces/inkscape"
   xmlns:sodipodi="http://sodipodi.sourceforge.net/DTD/sodipodi-0.dtd"
   xmlns="http://www.w3.org/2000/svg"
   xmlns:svg="http://www.w3.org/2000/svg"><defs
   id="defs20" /><sodipodi:namedview
   id="namedview18"
   pagecolor="#ffffff"
   bordercolor="#000000"
   borderopacity="0.25"
   inkscape:showpageshadow="2"
   inkscape:pageopacity="0.0"
   inkscape:pagecheckerboard="0"
   inkscape:deskcolor="#d1d1d1"
   showgrid="false"
   inkscape:zoom="11.638889"
   inkscape:cx="15.72315"
   inkscape:cy="39.350835"
   inkscape:window-width="1920"
   inkscape:window-height="1008"
   inkscape:window-x="0"
   inkscape:window-y="0"
   inkscape:window-maximized="1"
   inkscape:current-layer="layer2" />


<g
   inkscape:groupmode="layer"
   id="layer3"
   inkscape:label="Layer 3"><path
     style="fill:#ffff00;stroke-width:0;stroke-linejoin:bevel"
     d="M 11.176143,60.322188 -0.4031116,48.839603 11.20126,37.264001 22.805633,25.6884 34.334642,37.181162 C 40.675597,43.50218 45.852303,48.70329 45.838436,48.739185 45.794452,48.853008 22.88549,71.810856 22.818986,71.807746 22.784019,71.80613 17.544734,66.63761 11.176143,60.322188 Z m 12.636493,-7.482436 v -3.412767 h 3.222053 3.222055 V 48.523606 47.620227 H 27.034689 23.812636 V 44.20746 40.794694 h -1.006893 -1.006891 v 3.412766 3.412767 h -3.222053 -3.222055 v 0.903379 0.903379 h 3.222055 3.222053 v 3.412767 3.412767 h 1.006891 1.006893 z"
     id="path20380" /></g><g
   inkscape:groupmode="layer"
   id="layer2"
   inkscape:label="Layer 2"><g
     id="Layer_2">
	<g
   id="g4">
		<path
   d="M22.9,25.9C22.9,25.9,22.8,25.9,22.9,25.9L22.9,25.9c-0.1,0.1-0.2,0.2-0.2,0.2l0,0c0,0,0,0,0,0l0,0c0,0,0,0,0,0l0,0    c0,0,0,0,0,0l0,0c0,0,0,0,0,0l0,0c0,0,0,0,0,0l0,0c0,0,0,0,0,0l0,0c0,0,0,0,0,0l0,0c0,0,0,0,0,0l0,0c0,0,0,0,0,0l0,0c0,0,0,0,0,0    l0,0c0,0,0,0,0,0l0,0c0,0,0,0,0,0l0,0c0,0,0,0,0,0l0,0c0,0,0,0,0,0l0,0c0,0,0,0,0,0l0,0c0,0,0,0,0,0l0,0c0,0,0,0,0,0l0,0    c0,0,0,0,0,0l0,0c0,0,0,0,0,0l0,0c0,0,0,0,0,0l0,0c0,0,0,0,0,0l0,0c0,0,0,0,0,0l0,0c0,0,0,0,0,0l0,0c0,0,0,0,0,0l0,0c0,0,0,0,0,0    l0,0c0,0,0,0,0,0l0,0c0,0,0,0,0,0l0,0c0,0,0,0,0,0l0,0c0,0,0,0,0,0l0,0c0,0,0,0,0,0l0,0c0,0,0,0,0,0l0,0c0,0,0,0,0,0l0,0    c0,0,0,0,0,0l0,0c0,0,0,0,0,0l0,0c0,0,0,0,0,0l0,0c0,0,0,0,0,0l0,0c0,0,0,0,0,0l0,0c0,0,0,0,0,0l0,0c0,0,0,0,0,0l0,0c0,0,0,0,0,0    l0,0c0,0,0,0,0,0l0,0c0,0,0,0,0,0l0,0c0,0,0,0,0,0l0,0c0,0,0,0,0,0l0,0c0,0,0,0,0,0l0,0c0,0,0,0,0,0l0,0c0,0,0,0,0,0l0,0    c0,0,0,0,0,0l0,0c0,0,0,0,0,0l0,0c0,0,0,0,0,0l0,0c0,0,0,0,0,0l0,0c0,0,0,0,0,0l0,0c0,0,0,0,0,0l0,0c0,0,0,0,0,0l0,0c0,0,0,0,0,0    l0,0c0,0,0,0,0,0l0,0c0,0,0,0,0,0l0,0c0,0,0,0,0,0l0,0c0,0,0,0,0,0l0,0c0,0,0,0,0,0l0,0c0,0,0,0,0,0l0,0c0,0,0,0,0,0l0,0    c0,0,0,0,0,0l0,0c0,0,0,0,0,0l0,0c0,0,0,0,0,0l0,0c0,0,0,0,0,0l0,0c0,0,0,0,0,0l0,0c0,0,0,0,0,0l0,0l0,0l0,0c0,0,0,0,0,0l0,0    c0,0,0,0,0,0l-0.1,0.1l0,0l0,0c0,0,0,0,0,0l-0.1,0.1c0,0,0,0,0,0l0,0l0,0L20.7,28l1.5,1.5l0.6-0.6l0.9,0.9l1.5-1.5L22.9,25.9    L22.9,25.9z M18.6,30.1l-0.4,0.4c0,0,0,0,0,0l0,0c0,0,0,0,0,0l0,0c0,0,0,0,0,0l0,0c0,0,0,0,0,0l0,0c-0.6,0.6-1.7,1.7-1.7,1.7    l1.5,1.5l2.1-2.1L18.6,30.1L18.6,30.1z M14.4,34.4c0,0-0.7,0.7-1.3,1.3l0,0c0,0,0,0,0,0l0,0c0,0,0,0,0,0l0,0c0,0,0,0,0,0l0,0    c0,0,0,0,0,0l-0.8,0.8l1.5,1.5l2.1-2.1L14.4,34.4L14.4,34.4z M10.1,38.6l-1.3,1.3c0,0,0,0,0,0l0,0c0,0,0,0,0,0l0,0c0,0,0,0,0,0    l0,0C8.4,40.3,8,40.7,8,40.7l1.5,1.5l2.1-2.1L10.1,38.6L10.1,38.6z M5.9,42.9L3.8,45l1.5,1.5l2.1-2.1L5.9,42.9L5.9,42.9z     M1.7,47.1c0,0-0.1,0.1-0.1,0.1l0,0L0,48.8l0,0l0,0l0,0l0,0l0,0l0,0l0,0l0,0l0,0l0,0l0,0l0,0l0,0l0,0l1.5,1.5l1.7-1.7L1.7,47.1    L1.7,47.1z M4.1,49.8l-1.5,1.5l2.1,2.1L6.2,52L4.1,49.8L4.1,49.8z M8.3,54.1l-1.5,1.5l2.1,2.1l1.5-1.5L8.3,54.1L8.3,54.1z     M12.6,58.3l-1.5,1.5l2.1,2.1l1.5-1.5L12.6,58.3L12.6,58.3z M16.8,62.6l-1.5,1.5l2.1,2.1l1.5-1.5L16.8,62.6L16.8,62.6z M21.1,66.8    l-1.5,1.5l2.1,2.1l0.9-0.9l1.2,1.2l2.1-2.1l-1.5-1.5l-1.5,1.5L21.1,66.8L21.1,66.8z M28.6,62.8L26.5,65l1.5,1.5l2.1-2.1L28.6,62.8    L28.6,62.8z M32.9,58.6l-2.1,2.1l1.5,1.5l2.1-2.1L32.9,58.6L32.9,58.6z M37.1,54.3L35,56.5l1.5,1.5l2.1-2.1L37.1,54.3L37.1,54.3z     M41.4,50.1l-2.1,2.1l1.5,1.5l2.1-2.1L41.4,50.1L41.4,50.1z M44.2,47.3l0.1,0.1l0,0L44.2,47.3L43.5,48l0.1,0.1l-0.8,0.8l1.4,1.4    l0.8-0.8l0,0l-0.8,0.8l0.8-0.8l0,0l0,0l0,0l0,0l0.1-0.1l0,0l0.1-0.1l0,0l0.1-0.1l0,0l0.1-0.1l0,0l0.1-0.1l0,0l0.1-0.1l0,0l0,0l0,0    l0,0l0,0l0,0l0,0l0,0l0,0l0,0l0,0l0,0l0,0l0,0l0,0l0,0l0,0l0,0l-0.1-0.1l0,0l-0.2-0.2l0,0l-0.2-0.2l0,0L45,48.1l0,0l-0.3-0.3l0,0    l-0.2-0.2l0,0l-0.2-0.2l0,0l-0.1-0.1l0,0l0,0L44.2,47.3L44.2,47.3z M44.4,47.4L44.4,47.4L44.4,47.4L44.4,47.4L44.4,47.4z     M44.4,47.4l0.2,0.2l0,0L44.4,47.4L44.4,47.4z M44.6,47.6l0.2,0.2l0,0L44.6,47.6L44.6,47.6z M44.8,47.8l0.3,0.3l0,0L44.8,47.8    L44.8,47.8z M45,48.1l0.3,0.3l0,0L45,48.1L45,48.1z M45.3,48.3l0.2,0.2l0,0L45.3,48.3L45.3,48.3z M45.5,48.6l0.2,0.2l0,0    L45.5,48.6L45.5,48.6z M45.7,48.7L45.7,48.7L45.7,48.7L45.7,48.7L45.7,48.7z M45.7,48.8L45.7,48.8L45.7,48.8L45.7,48.8L45.7,48.8z     M45.7,48.8L45.7,48.8L45.7,48.8L45.7,48.8L45.7,48.8z M45.6,48.9L45.5,49l0,0L45.6,48.9L45.6,48.9z M45.5,49l-0.1,0.1l0,0    L45.5,49L45.5,49z M45.4,49.1l-0.1,0.1l0,0L45.4,49.1L45.4,49.1z M45.2,49.3l-0.1,0.1l0,0L45.2,49.3L45.2,49.3z M45.1,49.4    L45.1,49.4L45.1,49.4L45.1,49.4L45.1,49.4z M45,49.5L45,49.5L45,49.5L45,49.5L45,49.5z M40.1,43.1l-1.5,1.5l2.1,2.1l1.5-1.5    c0,0-0.2-0.2-0.4-0.4l0,0c0,0,0,0,0,0l0,0c0,0,0,0,0,0l0,0c0,0,0,0,0,0l0,0c0,0,0,0,0,0l0,0c0,0,0,0,0,0L40.1,43.1L40.1,43.1z     M35.9,38.9l-1.5,1.5l2.1,2.1L38,41l-1.2-1.2c0,0,0,0,0,0l0,0c0,0,0,0,0,0l0,0c0,0,0,0,0,0l0,0c0,0,0,0,0,0l0,0c0,0,0,0,0,0l0,0    C36.3,39.3,35.9,38.9,35.9,38.9L35.9,38.9z M31.6,34.7l-1.5,1.5l2.1,2.1l1.5-1.5L31.6,34.7L31.6,34.7z M27.4,30.4l-1.5,1.5L28,34    l1.5-1.5L27.4,30.4L27.4,30.4z"
   id="path2" />
	</g>
	<g
   id="g8">
		<path
   d="M23.7,42v5.8h5.5v1.5h-5.5v5.8h-1.6v-5.8h-5.5v-1.5h5.5V42H23.7z"
   id="path6" />
	</g>
</g><path
     style="fill:#ffff00;stroke:#000000;stroke-width:1.5;stroke-linejoin:bevel;stroke-dasharray:none;stroke-opacity:1"
     d="m 20.063784,20.37916 -2.769053,-3.692259 h 5.638097 5.638097 l -0.244375,0.322196 c -0.367054,0.483942 -5.373093,6.928366 -5.437717,7.000135 -0.0308,0.0342 -1.30207,-1.599329 -2.825049,-3.630072 z"
     id="path18889" /><path
     style="fill:#ffff00;stroke:#000000;stroke-width:1.5;stroke-linejoin:bevel;stroke-dasharray:none;stroke-opacity:1"
     d="m 17.330245,14.39047 c 0.04721,-0.05907 1.294799,-1.673269 2.772412,-3.587112 1.477612,-1.9138427 2.714034,-3.5108663 2.747603,-3.5489417 0.04747,-0.053846 5.346495,6.6779707 5.617221,7.1360537 0.05051,0.08547 -1.088611,0.107399 -5.579804,0.107399 -4.503125,0 -5.625933,-0.0217 -5.557432,-0.107399 z"
     id="path18891" /></g></svg>
