<?xml version="1.0" encoding="UTF-8" standalone="no"?>
<!-- Generator: Adobe Illustrator 23.0.1, SVG Export Plug-In . SVG Version: 6.00 Build 0)  -->

<svg
   version="1.1"
   x="0px"
   y="0px"
   width="45.7px"
   height="72px"
   viewBox="0 0 45.7 72"
   enable-background="new 0 0 45.7 72"
   xml:space="preserve"
   id="svg32128"
   sodipodi:docname="virtual-west.svg"
   inkscape:version="1.2.2 (b0a8486541, 2022-12-01)"
   xmlns:inkscape="http://www.inkscape.org/namespaces/inkscape"
   xmlns:sodipodi="http://sodipodi.sourceforge.net/DTD/sodipodi-0.dtd"
   xmlns="http://www.w3.org/2000/svg"
   xmlns:svg="http://www.w3.org/2000/svg"><defs
   id="defs32132" /><sodipodi:namedview
   id="namedview32130"
   pagecolor="#ffffff"
   bordercolor="#000000"
   borderopacity="0.25"
   inkscape:showpageshadow="2"
   inkscape:pageopacity="0.0"
   inkscape:pagecheckerboard="0"
   inkscape:deskcolor="#d1d1d1"
   showgrid="false"
   inkscape:zoom="11.638889"
   inkscape:cx="20.792363"
   inkscape:cy="36"
   inkscape:window-width="1920"
   inkscape:window-height="1008"
   inkscape:window-x="0"
   inkscape:window-y="0"
   inkscape:window-maximized="1"
   inkscape:current-layer="layer16" />


<g
   inkscape:groupmode="layer"
   id="layer17"
   inkscape:label="Layer 2"><path
     style="fill:#ffff00;stroke-width:0;stroke-linejoin:bevel"
     d="M 11.260987,60.473396 -0.31826762,48.990811 11.286104,37.415209 22.890477,25.839608 34.419486,37.33237 c 6.340955,6.321018 11.517661,11.522128 11.503794,11.558023 -0.04398,0.113823 -22.952946,23.071671 -23.01945,23.068561 -0.03497,-0.0016 -5.274252,-5.170136 -11.642843,-11.485558 z M 23.89748,52.99096 v -3.412767 h 3.222053 3.222055 V 48.674814 47.771435 H 27.119533 23.89748 v -3.412767 -3.412766 h -1.006893 -1.006891 v 3.412766 3.412767 h -3.222053 -3.222055 v 0.903379 0.903379 h 3.222055 3.222053 v 3.412767 3.412767 h 1.006891 1.006893 z"
     id="path20380" /></g><g
   inkscape:groupmode="layer"
   id="layer16"
   inkscape:label="Layer 1"><g
     id="Layer_2">
	<g
   id="g32116">
		<path
   d="M22.9,25.9C22.9,25.9,22.8,25.9,22.9,25.9L22.9,25.9c-0.1,0.1-0.2,0.2-0.2,0.2l0,0c0,0,0,0,0,0l0,0c0,0,0,0,0,0l0,0    c0,0,0,0,0,0l0,0c0,0,0,0,0,0l0,0c0,0,0,0,0,0l0,0c0,0,0,0,0,0l0,0c0,0,0,0,0,0l0,0c0,0,0,0,0,0l0,0c0,0,0,0,0,0l0,0c0,0,0,0,0,0    l0,0c0,0,0,0,0,0l0,0c0,0,0,0,0,0l0,0c0,0,0,0,0,0l0,0c0,0,0,0,0,0l0,0c0,0,0,0,0,0l0,0c0,0,0,0,0,0l0,0c0,0,0,0,0,0l0,0    c0,0,0,0,0,0l0,0c0,0,0,0,0,0l0,0c0,0,0,0,0,0l0,0c0,0,0,0,0,0l0,0c0,0,0,0,0,0l0,0c0,0,0,0,0,0l0,0c0,0,0,0,0,0l0,0c0,0,0,0,0,0    l0,0c0,0,0,0,0,0l0,0c0,0,0,0,0,0l0,0c0,0,0,0,0,0l0,0c0,0,0,0,0,0l0,0c0,0,0,0,0,0l0,0c0,0,0,0,0,0l0,0c0,0,0,0,0,0l0,0    c0,0,0,0,0,0l0,0c0,0,0,0,0,0l0,0c0,0,0,0,0,0l0,0c0,0,0,0,0,0l0,0c0,0,0,0,0,0l0,0c0,0,0,0,0,0l0,0c0,0,0,0,0,0l0,0c0,0,0,0,0,0    l0,0c0,0,0,0,0,0l0,0c0,0,0,0,0,0l0,0c0,0,0,0,0,0l0,0c0,0,0,0,0,0l0,0c0,0,0,0,0,0l0,0c0,0,0,0,0,0l0,0c0,0,0,0,0,0l0,0    c0,0,0,0,0,0l0,0c0,0,0,0,0,0l0,0c0,0,0,0,0,0l0,0c0,0,0,0,0,0l0,0c0,0,0,0,0,0l0,0c0,0,0,0,0,0l0,0c0,0,0,0,0,0l0,0c0,0,0,0,0,0    l0,0c0,0,0,0,0,0l0,0c0,0,0,0,0,0l0,0c0,0,0,0,0,0l0,0c0,0,0,0,0,0l0,0c0,0,0,0,0,0l0,0c0,0,0,0,0,0l0,0c0,0,0,0,0,0l0,0    c0,0,0,0,0,0l0,0c0,0,0,0,0,0l0,0c0,0,0,0,0,0l0,0c0,0,0,0,0,0l0,0c0,0,0,0,0,0l0,0c0,0,0,0,0,0l0,0l0,0l0,0c0,0,0,0,0,0l0,0    c0,0,0,0,0,0l-0.1,0.1l0,0l0,0c0,0,0,0,0,0l-0.1,0.1c0,0,0,0,0,0l0,0l0,0L20.7,28l1.5,1.5l0.6-0.6l0.9,0.9l1.5-1.5L22.9,25.9    L22.9,25.9z M18.6,30.1l-0.4,0.4c0,0,0,0,0,0l0,0c0,0,0,0,0,0l0,0c0,0,0,0,0,0l0,0c0,0,0,0,0,0l0,0c-0.6,0.6-1.7,1.7-1.7,1.7    l1.5,1.5l2.1-2.1L18.6,30.1L18.6,30.1z M14.4,34.4c0,0-0.7,0.7-1.3,1.3l0,0c0,0,0,0,0,0l0,0c0,0,0,0,0,0l0,0c0,0,0,0,0,0l0,0    c0,0,0,0,0,0l-0.8,0.8l1.5,1.5l2.1-2.1L14.4,34.4L14.4,34.4z M10.1,38.6l-1.3,1.3c0,0,0,0,0,0l0,0c0,0,0,0,0,0l0,0c0,0,0,0,0,0    l0,0C8.4,40.3,8,40.7,8,40.7l1.5,1.5l2.1-2.1L10.1,38.6L10.1,38.6z M5.9,42.9L3.8,45l1.5,1.5l2.1-2.1L5.9,42.9L5.9,42.9z     M1.7,47.1c0,0-0.1,0.1-0.1,0.1l0,0L0,48.8l0,0l0,0l0,0l0,0l0,0l0,0l0,0l0,0l0,0l0,0l0,0l0,0l0,0l0,0l1.5,1.5l1.7-1.7L1.7,47.1    L1.7,47.1z M4.1,49.8l-1.5,1.5l2.1,2.1L6.2,52L4.1,49.8L4.1,49.8z M8.3,54.1l-1.5,1.5l2.1,2.1l1.5-1.5L8.3,54.1L8.3,54.1z     M12.6,58.3l-1.5,1.5l2.1,2.1l1.5-1.5L12.6,58.3L12.6,58.3z M16.8,62.6l-1.5,1.5l2.1,2.1l1.5-1.5L16.8,62.6L16.8,62.6z M21.1,66.8    l-1.5,1.5l2.1,2.1l0.9-0.9l1.2,1.2l2.1-2.1l-1.5-1.5l-1.5,1.5L21.1,66.8L21.1,66.8z M28.6,62.8L26.5,65l1.5,1.5l2.1-2.1L28.6,62.8    L28.6,62.8z M32.9,58.6l-2.1,2.1l1.5,1.5l2.1-2.1L32.9,58.6L32.9,58.6z M37.1,54.3L35,56.5l1.5,1.5l2.1-2.1L37.1,54.3L37.1,54.3z     M41.4,50.1l-2.1,2.1l1.5,1.5l2.1-2.1L41.4,50.1L41.4,50.1z M44.2,47.3l0.1,0.1l0,0L44.2,47.3L43.5,48l0.1,0.1l-0.8,0.8l1.4,1.4    l0.8-0.8l0,0l-0.8,0.8l0.8-0.8l0,0l0,0l0,0l0,0l0.1-0.1l0,0l0.1-0.1l0,0l0.1-0.1l0,0l0.1-0.1l0,0l0.1-0.1l0,0l0.1-0.1l0,0l0,0l0,0    l0,0l0,0l0,0l0,0l0,0l0,0l0,0l0,0l0,0l0,0l0,0l0,0l0,0l0,0l0,0l-0.1-0.1l0,0l-0.2-0.2l0,0l-0.2-0.2l0,0L45,48.1l0,0l-0.3-0.3l0,0    l-0.2-0.2l0,0l-0.2-0.2l0,0l-0.1-0.1l0,0l0,0L44.2,47.3L44.2,47.3z M44.4,47.4L44.4,47.4L44.4,47.4L44.4,47.4L44.4,47.4z     M44.4,47.4l0.2,0.2l0,0L44.4,47.4L44.4,47.4z M44.6,47.6l0.2,0.2l0,0L44.6,47.6L44.6,47.6z M44.8,47.8l0.3,0.3l0,0L44.8,47.8    L44.8,47.8z M45,48.1l0.3,0.3l0,0L45,48.1L45,48.1z M45.3,48.3l0.2,0.2l0,0L45.3,48.3L45.3,48.3z M45.5,48.6l0.2,0.2l0,0    L45.5,48.6L45.5,48.6z M45.7,48.7L45.7,48.7L45.7,48.7L45.7,48.7L45.7,48.7z M45.7,48.8L45.7,48.8L45.7,48.8L45.7,48.8L45.7,48.8z     M45.7,48.8L45.7,48.8L45.7,48.8L45.7,48.8L45.7,48.8z M45.6,48.9L45.5,49l0,0L45.6,48.9L45.6,48.9z M45.5,49l-0.1,0.1l0,0    L45.5,49L45.5,49z M45.4,49.1l-0.1,0.1l0,0L45.4,49.1L45.4,49.1z M45.2,49.3l-0.1,0.1l0,0L45.2,49.3L45.2,49.3z M45.1,49.4    L45.1,49.4L45.1,49.4L45.1,49.4L45.1,49.4z M45,49.5L45,49.5L45,49.5L45,49.5L45,49.5z M40.1,43.1l-1.5,1.5l2.1,2.1l1.5-1.5    c0,0-0.2-0.2-0.4-0.4l0,0c0,0,0,0,0,0l0,0c0,0,0,0,0,0l0,0c0,0,0,0,0,0l0,0c0,0,0,0,0,0l0,0c0,0,0,0,0,0L40.1,43.1L40.1,43.1z     M35.9,38.9l-1.5,1.5l2.1,2.1L38,41l-1.2-1.2c0,0,0,0,0,0l0,0c0,0,0,0,0,0l0,0c0,0,0,0,0,0l0,0c0,0,0,0,0,0l0,0c0,0,0,0,0,0l0,0    C36.3,39.3,35.9,38.9,35.9,38.9L35.9,38.9z M31.6,34.7l-1.5,1.5l2.1,2.1l1.5-1.5L31.6,34.7L31.6,34.7z M27.4,30.4l-1.5,1.5L28,34    l1.5-1.5L27.4,30.4L27.4,30.4z"
   id="path32114" />
	</g>
	<g
   id="g32120">
		<path
   d="M23.7,42v5.8h5.5v1.5h-5.5v5.8h-1.6v-5.8h-5.5v-1.5h5.5V42H23.7z"
   id="path32118" />
	</g>
</g><path
     style="fill:#ffff00;stroke:#000000;stroke-width:1.5;stroke-linejoin:bevel;stroke-dasharray:none;stroke-opacity:1"
     d="m 17.324154,23.623814 c 0.189664,-0.313976 5.549845,-7.281154 5.599775,-7.278603 0.0325,0.0017 0.977122,1.209895 2.099155,2.684964 1.122034,1.47507 2.388539,3.136241 2.814456,3.691491 l 0.774394,1.009547 h -5.676328 c -4.518384,0 -5.663093,-0.02191 -5.611452,-0.107399 z"
     id="path3337" /><path
     style="fill:#ffff00;stroke:#000000;stroke-width:1.5;stroke-linejoin:bevel;stroke-dasharray:none;stroke-opacity:1"
     d="m 20.310652,10.484673 -2.76009,-3.6300709 5.597722,-0.02211 c 3.078747,-0.01216 5.614117,-0.0057 5.634155,0.01433 0.03261,0.03261 -5.629626,7.2679229 -5.687754,7.2679229 -0.01317,0 -1.265983,-1.633532 -2.784033,-3.630072 z"
     id="path3702" /></g></svg>
