<?xml version="1.0" encoding="UTF-8" standalone="no"?>
<!-- Created with Inkscape (http://www.inkscape.org/) -->

<svg
   width="37"
   height="37"
   viewBox="0 0 9.7895835 9.7895833"
   version="1.1"
   id="svg5"
   xml:space="preserve"
   inkscape:version="1.2.2 (b0a8486541, 2022-12-01)"
   sodipodi:docname="boatramp2.svg"
   xmlns:inkscape="http://www.inkscape.org/namespaces/inkscape"
   xmlns:sodipodi="http://sodipodi.sourceforge.net/DTD/sodipodi-0.dtd"
   xmlns="http://www.w3.org/2000/svg"
   xmlns:svg="http://www.w3.org/2000/svg"><sodipodi:namedview
     id="namedview7"
     pagecolor="#ffffff"
     bordercolor="#000000"
     borderopacity="0.25"
     inkscape:showpageshadow="2"
     inkscape:pageopacity="0.0"
     inkscape:pagecheckerboard="0"
     inkscape:deskcolor="#d1d1d1"
     inkscape:document-units="mm"
     showgrid="false"
     inkscape:zoom="11.249162"
     inkscape:cx="10.978596"
     inkscape:cy="23.690654"
     inkscape:window-width="1434"
     inkscape:window-height="881"
     inkscape:window-x="422"
     inkscape:window-y="127"
     inkscape:window-maximized="0"
     inkscape:current-layer="layer1" /><defs
     id="defs2" /><g
     inkscape:label="Layer 1"
     inkscape:groupmode="layer"
     id="layer1"
     transform="matrix(0.99999841,0,0,1,32.673127,29.165453)"><path
       style="fill:#ffffff;stroke:#000000;stroke-width:0.269632;stroke-dasharray:none;stroke-opacity:1"
       d="m -32.535751,-19.676465 0.0064,-7.695701 0.09903,-0.465033 0.240152,-0.571408 0.437852,-0.393465 0.418232,-0.233737 0.457312,0.01597 6.156289,0.04183 0.308492,0.107446 0.432171,0.257976 0.750932,0.909871 0.214847,0.335007 0.07726,3.416753 -0.03113,0.345431 -0.06223,0.283445 -0.07527,0.231807 -0.09872,0.211878 -0.130778,0.196819 -0.115461,0.13976 -0.155803,0.140387 -0.247952,0.142869 -0.242445,0.123935 -0.29986,0.11325 -0.459529,0.06646 -5.065536,-0.07878 z"
       id="path6156"
       sodipodi:nodetypes="cccccccccccccccccccccccccc" /><path
       style="fill:#ff6600;stroke:#ffffff;stroke-width:0.29900024;stroke-dasharray:none;stroke-opacity:1;fill-opacity:1"
       d="m -32.523247,-20.10579 0.011,-7.324442 0.09779,-0.447488 0.23615,-0.549849 0.429054,-0.378616 0.409549,-0.224919 0.447196,0.01546 6.05154,-0.01625 0.405717,0.08928 0.434506,0.249203 0.509216,0.508393 0.274262,0.576575 0.07818,3.47028 -0.07691,0.575196 -0.18238,0.487537 -0.349753,0.409738 -0.465305,0.25505 -0.359656,0.132511 -0.447437,0.06075 -5.146873,-0.04995 z"
       id="path6156-3"
       sodipodi:nodetypes="ccccccccccccccccccccc" /><path
       style="fill:#00ff00;fill-opacity:0;stroke:#ffffff;stroke-width:1.176;stroke-dasharray:none"
       d="m -29.083314,-26.944965 0.637068,0.423392 0.865314,0.55106 0.615682,0.369252 2.196124,1.084072"
       id="path5222"
       sodipodi:nodetypes="ccccc" /><path
       style="fill:#00ff00;fill-opacity:0;stroke:#ffffff;stroke-width:0.417;stroke-dasharray:none"
       d="m -29.61572,-27.886326 c -0.144058,0.242093 0.184848,1.407765 0.324092,1.58765 0.659625,0.5976 3.734756,2.133876 4.211082,2.435837"
       id="path5222-7"
       sodipodi:nodetypes="ccc" /><rect
       style="fill:#00ff00;fill-opacity:0;stroke:#ffffff;stroke-width:0.881443;stroke-dasharray:none"
       id="rect9976"
       width="0.14490151"
       height="0.061248709"
       x="-35.777931"
       y="-10.976557"
       transform="matrix(0.88720308,0.46137913,-0.23078341,0.97300515,0,0)"
       inkscape:transform-center-x="1.2361013"
       inkscape:transform-center-y="0.16104092" /><path
       style="fill:#00ff00;fill-opacity:0;stroke:#ffffff;stroke-width:0.417;stroke-dasharray:none"
       d="m -28.622708,-27.0915 0.736227,-0.42219"
       id="path9978" /><ellipse
       style="fill:#00ff00;fill-opacity:0;stroke:#ffffff;stroke-width:0.494382;stroke-dasharray:none"
       id="path10032"
       cx="-27.084707"
       cy="-24.264944"
       rx="0.51075184"
       ry="0.50053984" /><ellipse
       style="fill:#ffffff;fill-opacity:0;stroke:#ff6600;stroke-width:0.223047;stroke-dasharray:none;stroke-opacity:1"
       id="path10032-0"
       cx="-27.089388"
       cy="-24.253069"
       rx="0.79883718"
       ry="0.82747644" /><path
       style="fill:#ffffff;fill-opacity:0;stroke:#ffffff;stroke-width:0.417;stroke-dasharray:none;stroke-opacity:1"
       d="m -27.893045,-24.713381 -1.78234,-1.089864"
       id="path10393" /><path
       style="fill:#ffffff;fill-opacity:0;stroke:#ffffff;stroke-width:0.413;stroke-dasharray:none;stroke-opacity:1"
       d="m -25.349723,-23.364347 -0.979886,-0.515937"
       id="path10393-9" /></g></svg>
