<?xml version="1.0" encoding="UTF-8" standalone="no"?>
<!-- Created with Inkscape (http://www.inkscape.org/) -->

<svg
   width="37"
   height="37"
   viewBox="0 0 9.7895835 9.7895833"
   version="1.1"
   id="svg5"
   xml:space="preserve"
   inkscape:version="1.2.2 (b0a8486541, 2022-12-01)"
   sodipodi:docname="business2.svg"
   xmlns:inkscape="http://www.inkscape.org/namespaces/inkscape"
   xmlns:sodipodi="http://sodipodi.sourceforge.net/DTD/sodipodi-0.dtd"
   xmlns="http://www.w3.org/2000/svg"
   xmlns:svg="http://www.w3.org/2000/svg"><sodipodi:namedview
     id="namedview7"
     pagecolor="#ffffff"
     bordercolor="#000000"
     borderopacity="0.25"
     inkscape:showpageshadow="2"
     inkscape:pageopacity="0.0"
     inkscape:pagecheckerboard="0"
     inkscape:deskcolor="#d1d1d1"
     inkscape:document-units="mm"
     showgrid="false"
     inkscape:zoom="16"
     inkscape:cx="19.40625"
     inkscape:cy="17.65625"
     inkscape:window-width="1434"
     inkscape:window-height="881"
     inkscape:window-x="422"
     inkscape:window-y="1197"
     inkscape:window-maximized="0"
     inkscape:current-layer="layer2" /><defs
     id="defs2" /><g
     inkscape:label="Layer 1"
     inkscape:groupmode="layer"
     id="layer1"
     transform="matrix(0.99999841,0,0,1,32.673127,29.165453)"><path
       style="fill:#ffffff;stroke:#000000;stroke-width:0.269632;stroke-dasharray:none;stroke-opacity:1"
       d="m -32.535751,-19.676465 0.0064,-7.695701 0.09903,-0.465033 0.240152,-0.571408 0.437852,-0.393465 0.418232,-0.233737 0.457312,0.01597 6.156289,0.04183 0.308492,0.107446 0.432171,0.257976 0.750932,0.909871 0.214847,0.335007 0.07726,3.416753 -0.03113,0.345431 -0.06223,0.283445 -0.07527,0.231807 -0.09872,0.211878 -0.130778,0.196819 -0.115461,0.13976 -0.155803,0.140387 -0.247952,0.142869 -0.242445,0.123935 -0.29986,0.11325 -0.459529,0.06646 -5.065536,-0.07878 z"
       id="path6156"
       sodipodi:nodetypes="cccccccccccccccccccccccccc" /><path
       style="fill:#0000ff;stroke:#ffffff;stroke-width:0.29900024;stroke-dasharray:none;stroke-opacity:1;fill-opacity:1"
       d="m -32.523247,-20.10579 0.011,-7.324442 0.09779,-0.447488 0.23615,-0.549849 0.429054,-0.378616 0.409549,-0.224919 0.447196,0.01546 6.05154,-0.01625 0.405717,0.08928 0.434506,0.249203 0.509216,0.508393 0.274262,0.576575 0.07818,3.47028 -0.07691,0.575196 -0.18238,0.487537 -0.349753,0.409738 -0.465305,0.25505 -0.359656,0.132511 -0.447437,0.06075 -5.146873,-0.04995 z"
       id="path6156-3"
       sodipodi:nodetypes="ccccccccccccccccccccc" /></g><g
     inkscape:groupmode="layer"
     id="layer2"
     inkscape:label="Layer 2"><ellipse
       style="fill:#ffffff;fill-opacity:1;stroke:#ffffff;stroke-width:0.281446;stroke-dasharray:none;stroke-opacity:1"
       id="path6806-3"
       cx="6.9183302"
       cy="5.4850211"
       rx="0.43735185"
       ry="0.43631735" /><ellipse
       style="fill:#ffffff;fill-opacity:1;stroke:#ffffff;stroke-width:0.281446;stroke-dasharray:none;stroke-opacity:1"
       id="path6806-3-7"
       cx="4.1172752"
       cy="5.5028176"
       rx="0.43735185"
       ry="0.43631735" /><path
       style="fill:none;fill-opacity:1;stroke:#ffffff;stroke-width:0.604;stroke-dasharray:none;stroke-opacity:1"
       d="m 1.7533723,1.213302 0.7168117,0.2426309 0.2319688,0.25104 0.1415361,0.4050337 C 2.9491115,2.805105 3.0425167,3.4276579 3.1409258,4.147633 l 0.1022634,0.1983215 0.1244668,0.1219004 0.1668798,0.067341 4.1971001,-0.00759"
       id="path3332"
       sodipodi:nodetypes="ccccccccc" /><path
       style="fill:#ffffff;fill-opacity:1;stroke:#ffffff;stroke-width:0.204;stroke-linejoin:bevel;stroke-dasharray:none;stroke-opacity:1"
       d="M 3.0076108,2.0048618 7.7261372,2.2376722 7.5905978,3.7047279 3.3881733,3.7314886"
       id="path3415"
       sodipodi:nodetypes="cccc" /></g></svg>
