<svg xmlns="http://www.w3.org/2000/svg" width="37" height="37" viewBox="0 0 9.7895835 9.7895833" role="img" aria-label="Dive site marker">
  <g transform="matrix(0.99999841,0,0,1,32.673127,29.165453)">
    <path
      d="m -32.535751,-19.676465 0.0064,-7.695701 0.09903,-0.465033 0.240152,-0.571408 0.437852,-0.393465 0.418232,-0.233737 0.457312,0.01597 6.156289,0.04183 0.308492,0.107446 0.432171,0.257976 0.750932,0.909871 0.214847,0.335007 0.07726,3.416753 -0.03113,0.345431 -0.06223,0.283445 -0.07527,0.231807 -0.09872,0.211878 -0.130778,0.196819 -0.115461,0.13976 -0.155803,0.140387 -0.247952,0.142869 -0.242445,0.123935 -0.29986,0.11325 -0.459529,0.06646 -5.065536,-0.07878 z"
      fill="#ffffff"
      stroke="#000000"
      stroke-width="0.269632"/>
    <path
      d="m -32.523247,-20.10579 0.011,-7.324442 0.09779,-0.447488 0.23615,-0.549849 0.429054,-0.378616 0.409549,-0.224919 0.447196,0.01546 6.05154,-0.01625 0.405717,0.08928 0.434506,0.249203 0.509216,0.508393 0.274262,0.576575 0.07818,3.47028 -0.07691,0.575196 -0.18238,0.487537 -0.349753,0.409738 -0.465305,0.25505 -0.359656,0.132511 -0.447437,0.06075 -5.146873,-0.04995 z"
      fill="#d71920"
      stroke="#ffffff"
      stroke-width="0.29900024"/>
  </g>
  <path
    d="M 2.05,1.0 7.65,6.32"
    fill="none"
    stroke="#ffffff"
    stroke-width="1.25"
    stroke-linecap="round"/>
</svg>
