<?xml version="1.0" encoding="UTF-8" standalone="no"?>
<!-- Created with Inkscape (http://www.inkscape.org/) -->

<svg
   width="37"
   height="37"
   viewBox="0 0 9.7895835 9.7895833"
   version="1.1"
   id="svg5"
   xml:space="preserve"
   inkscape:version="1.2.2 (b0a8486541, 2022-12-01)"
   sodipodi:docname="ferry-dock.svg"
   xmlns:inkscape="http://www.inkscape.org/namespaces/inkscape"
   xmlns:sodipodi="http://sodipodi.sourceforge.net/DTD/sodipodi-0.dtd"
   xmlns="http://www.w3.org/2000/svg"
   xmlns:svg="http://www.w3.org/2000/svg"><sodipodi:namedview
     id="namedview7"
     pagecolor="#ffffff"
     bordercolor="#000000"
     borderopacity="0.25"
     inkscape:showpageshadow="2"
     inkscape:pageopacity="0.0"
     inkscape:pagecheckerboard="0"
     inkscape:deskcolor="#d1d1d1"
     inkscape:document-units="mm"
     showgrid="false"
     inkscape:zoom="11.313708"
     inkscape:cx="6.4965438"
     inkscape:cy="9.2365827"
     inkscape:window-width="1434"
     inkscape:window-height="881"
     inkscape:window-x="422"
     inkscape:window-y="1197"
     inkscape:window-maximized="0"
     inkscape:current-layer="layer1" /><defs
     id="defs2"><filter
       inkscape:collect="always"
       style="color-interpolation-filters:sRGB"
       id="filter18127"
       x="-0.020352775"
       y="-246.97691"
       width="1.040705"
       height="494.95381"><feGaussianBlur
         inkscape:collect="always"
         stdDeviation="0.023560634"
         id="feGaussianBlur18129" /></filter><filter
       inkscape:collect="always"
       style="color-interpolation-filters:sRGB"
       id="filter18131"
       x="-0.013811598"
       y="-162.84338"
       width="1.0276217"
       height="326.68675"><feGaussianBlur
         inkscape:collect="always"
         stdDeviation="0.017735565"
         id="feGaussianBlur18133" /></filter></defs><g
     inkscape:label="Layer 1"
     inkscape:groupmode="layer"
     id="layer1"
     transform="matrix(0.99999841,0,0,1,32.673127,29.165453)"><path
       style="fill:#ffffff;stroke:#000000;stroke-width:0.269632;stroke-dasharray:none;stroke-opacity:1"
       d="m -32.535751,-19.676465 0.0064,-7.695701 0.09903,-0.465033 0.240152,-0.571408 0.437852,-0.393465 0.418232,-0.233737 0.457312,0.01597 6.156289,0.04183 0.308492,0.107446 0.432171,0.257976 0.750932,0.909871 0.214847,0.335007 0.07726,3.416753 -0.03113,0.345431 -0.06223,0.283445 -0.07527,0.231807 -0.09872,0.211878 -0.130778,0.196819 -0.115461,0.13976 -0.155803,0.140387 -0.247952,0.142869 -0.242445,0.123935 -0.29986,0.11325 -0.459529,0.06646 -5.065536,-0.07878 z"
       id="path6156"
       sodipodi:nodetypes="cccccccccccccccccccccccccc" /><path
       style="fill:#ff6600;stroke:#ffffff;stroke-width:0.29900024;stroke-dasharray:none;stroke-opacity:1;fill-opacity:1"
       d="m -32.523247,-20.10579 0.011,-7.324442 0.09779,-0.447488 0.23615,-0.549849 0.429054,-0.378616 0.409549,-0.224919 0.447196,0.01546 6.05154,-0.01625 0.405717,0.08928 0.434506,0.249203 0.509216,0.508393 0.274262,0.576575 0.07818,3.47028 -0.07691,0.575196 -0.18238,0.487537 -0.349753,0.409738 -0.465305,0.25505 -0.359656,0.132511 -0.447437,0.06075 -5.146873,-0.04995 z"
       id="path6156-3"
       sodipodi:nodetypes="ccccccccccccccccccccc" /><path
       style="fill:#ff6600;fill-opacity:0.921999;stroke:#ffffff;stroke-width:0.566243;stroke-dasharray:none;stroke-opacity:1;filter:url(#filter18131)"
       d="m -25.979233,-27.406059 c -1.686246,0.0014 -1.688175,8.06e-4 -3.099202,0.002"
       id="path10128-5"
       sodipodi:nodetypes="cc" /><path
       style="fill:#ff6600;fill-opacity:0.921999;stroke:#ffffff;stroke-width:0.378887;stroke-dasharray:none;stroke-opacity:1;filter:url(#filter18127)"
       d="m -26.125106,-27.778882 c -1.514005,6.97e-4 -1.515737,4.02e-4 -2.782635,9.96e-4"
       id="path10128-5-0"
       sodipodi:nodetypes="cc" /><rect
       style="fill:#ffffff;fill-opacity:0;stroke:#ffffff;stroke-width:0.521527;stroke-dasharray:none;stroke-opacity:1"
       id="rect18029"
       width="3.7103143"
       height="2.2801046"
       x="-29.399904"
       y="-27.073681"
       ry="0.28567603" /><path
       style="fill:#ffffff;fill-opacity:0.971541;stroke:#ffffff;stroke-width:0.571538;stroke-dasharray:none;stroke-opacity:1"
       d="m -30.071453,-24.811297 0.443066,1.349528 4.151721,0.001 0.398868,-1.352611 -0.983763,-0.147808 -1.44396,-0.641039 c -0.462272,0.135719 -1.264743,0.601626 -1.595016,0.667738 z"
       id="path18189"
       sodipodi:nodetypes="cccccccc" /><path
       style="fill:#ffffff;fill-opacity:0;stroke:#ff6600;stroke-width:0.56700045;stroke-dasharray:none;stroke-opacity:1"
       d="m -24.787525,-23.570691 c -0.363287,0.541872 -0.792337,0.477698 -1.175174,0.06776 0,0 -0.940333,0.834295 -1.509273,0.01813 -0.349861,0.508225 -1.100486,0.491713 -1.551868,0.03371 -0.586452,0.503112 -1.045554,0.441448 -1.348313,-0.103854"
       id="path18308"
       sodipodi:nodetypes="ccccc" /><path
       style="fill:#ffffff;fill-opacity:0;stroke:#ffffff;stroke-width:0.267;stroke-dasharray:none;stroke-opacity:1"
       d="m -24.763472,-23.528754 c -0.363287,0.541872 -0.792337,0.477698 -1.175174,0.06776 0,0 -0.940333,0.834295 -1.509273,0.01813 -0.349861,0.508225 -1.100486,0.491713 -1.551868,0.03371 -0.586452,0.503112 -1.045554,0.441448 -1.348313,-0.103854"
       id="path18308-9"
       sodipodi:nodetypes="ccccc" /></g></svg>
