<?xml version="1.0" encoding="UTF-8" standalone="no"?>
<!-- Created with Inkscape (http://www.inkscape.org/) -->

<svg
   width="37"
   height="37"
   viewBox="0 0 9.7895835 9.7895833"
   version="1.1"
   id="svg5"
   xml:space="preserve"
   inkscape:version="1.2.2 (b0a8486541, 2022-12-01)"
   sodipodi:docname="fuel.svg"
   xmlns:inkscape="http://www.inkscape.org/namespaces/inkscape"
   xmlns:sodipodi="http://sodipodi.sourceforge.net/DTD/sodipodi-0.dtd"
   xmlns="http://www.w3.org/2000/svg"
   xmlns:svg="http://www.w3.org/2000/svg"><sodipodi:namedview
     id="namedview7"
     pagecolor="#ffffff"
     bordercolor="#000000"
     borderopacity="0.25"
     inkscape:showpageshadow="2"
     inkscape:pageopacity="0.0"
     inkscape:pagecheckerboard="0"
     inkscape:deskcolor="#d1d1d1"
     inkscape:document-units="mm"
     showgrid="false"
     inkscape:zoom="8"
     inkscape:cx="-2.3125"
     inkscape:cy="8.1875"
     inkscape:window-width="1434"
     inkscape:window-height="881"
     inkscape:window-x="360"
     inkscape:window-y="66"
     inkscape:window-maximized="0"
     inkscape:current-layer="layer2" /><defs
     id="defs2" /><g
     inkscape:label="Layer 1"
     inkscape:groupmode="layer"
     id="layer1"
     transform="matrix(0.99999841,0,0,1,32.673127,29.165453)"><path
       style="fill:#ffffff;stroke:#000000;stroke-width:0.269632;stroke-dasharray:none;stroke-opacity:1"
       d="m -32.535751,-19.676465 0.0064,-7.695701 0.09903,-0.465033 0.240152,-0.571408 0.437852,-0.393465 0.418232,-0.233737 0.457312,0.01597 6.156289,0.04183 0.308492,0.107446 0.432171,0.257976 0.750932,0.909871 0.214847,0.335007 0.07726,3.416753 -0.03113,0.345431 -0.06223,0.283445 -0.07527,0.231807 -0.09872,0.211878 -0.130778,0.196819 -0.115461,0.13976 -0.155803,0.140387 -0.247952,0.142869 -0.242445,0.123935 -0.29986,0.11325 -0.459529,0.06646 -5.065536,-0.07878 z"
       id="path6156"
       sodipodi:nodetypes="cccccccccccccccccccccccccc" /><path
       style="fill:#ff00ff;stroke:#ffffff;stroke-width:0.29900024;stroke-dasharray:none;stroke-opacity:1;fill-opacity:1"
       d="m -32.523247,-20.10579 0.011,-7.324442 0.09779,-0.447488 0.23615,-0.549849 0.429054,-0.378616 0.409549,-0.224919 0.447196,0.01546 6.05154,-0.01625 0.405717,0.08928 0.434506,0.249203 0.509216,0.508393 0.274262,0.576575 0.07818,3.47028 -0.07691,0.575196 -0.18238,0.487537 -0.349753,0.409738 -0.465305,0.25505 -0.359656,0.132511 -0.447437,0.06075 -5.146873,-0.04995 z"
       id="path6156-3"
       sodipodi:nodetypes="ccccccccccccccccccccc" /></g><g
     inkscape:groupmode="layer"
     id="layer2"
     inkscape:label="Layer 2"><path
       style="fill:#ffffff;fill-opacity:1;stroke:#ffffff;stroke-width:0.11584;stroke-linejoin:bevel;stroke-dasharray:none;stroke-opacity:1"
       d="M 3.6457563,5.3582731 3.2751685,5.1435445 3.0403236,4.9227007 2.8151788,4.6937552 2.6027917,4.3984759 2.4865516,4.1358775 2.3960509,3.9058166 2.3434481,3.6481929 2.3201029,3.4225455 2.3113672,3.2209906 2.3070904,2.9882095 2.3084797,2.7332073 2.0469241,2.5238131 2.2560439,2.2458425 2.5394428,2.0262146 2.9109884,1.8383515 3.5768998,1.6486387 3.3378662,1.7807188 3.1444225,1.9624698 2.9873335,2.1574817 2.9093997,2.3472383 2.896966,2.5585821 l 0.00987,0.1865307 -0.2754989,0.00555 -0.0094,0.3704419 0.080739,0.4262812 0.1157746,0.3766814 0.1530154,0.3762314 0.2451806,0.2734968 0.3504894,0.300851 0.044678,0.4644355"
       id="path3415-5-3"
       sodipodi:nodetypes="ccccccccccccccccccccccccccccccc" /><rect
       style="fill:#ffffff;stroke:#ffffff;stroke-width:0.418;stroke-linejoin:round;stroke-opacity:1;stroke-dasharray:none"
       id="rect2813"
       width="3.2627795"
       height="4.3820839"
       x="3.8169096"
       y="1.358464" /><rect
       style="fill:#ff01ff;fill-opacity:1;stroke:#ff00ff;stroke-width:0.445663;stroke-linejoin:round;stroke-dasharray:none;stroke-opacity:1"
       id="rect3506"
       width="2.085222"
       height="1.3529143"
       x="4.3953176"
       y="1.9239556" /></g></svg>
