<?xml version="1.0" encoding="UTF-8" standalone="no"?>
<!-- Created with Inkscape (http://www.inkscape.org/) -->

<svg
   width="37"
   height="37"
   viewBox="0 0 9.7895835 9.7895833"
   version="1.1"
   id="svg5"
   xml:space="preserve"
   inkscape:version="1.2.2 (b0a8486541, 2022-12-01)"
   sodipodi:docname="marina2.svg"
   xmlns:inkscape="http://www.inkscape.org/namespaces/inkscape"
   xmlns:sodipodi="http://sodipodi.sourceforge.net/DTD/sodipodi-0.dtd"
   xmlns="http://www.w3.org/2000/svg"
   xmlns:svg="http://www.w3.org/2000/svg"><sodipodi:namedview
     id="namedview7"
     pagecolor="#ffffff"
     bordercolor="#000000"
     borderopacity="0.25"
     inkscape:showpageshadow="2"
     inkscape:pageopacity="0.0"
     inkscape:pagecheckerboard="0"
     inkscape:deskcolor="#d1d1d1"
     inkscape:document-units="mm"
     showgrid="false"
     inkscape:zoom="32"
     inkscape:cx="21.703125"
     inkscape:cy="11.171875"
     inkscape:window-width="1434"
     inkscape:window-height="881"
     inkscape:window-x="422"
     inkscape:window-y="1197"
     inkscape:window-maximized="0"
     inkscape:current-layer="layer2" /><defs
     id="defs2" /><g
     inkscape:label="Layer 1"
     inkscape:groupmode="layer"
     id="layer1"
     transform="matrix(0.99999841,0,0,1,32.673127,29.165453)"><path
       style="fill:#ffffff;stroke:#000000;stroke-width:0.269632;stroke-dasharray:none;stroke-opacity:1"
       d="m -32.535751,-19.676465 0.0064,-7.695701 0.09903,-0.465033 0.240152,-0.571408 0.437852,-0.393465 0.418232,-0.233737 0.457312,0.01597 6.156289,0.04183 0.308492,0.107446 0.432171,0.257976 0.750932,0.909871 0.214847,0.335007 0.07726,3.416753 -0.03113,0.345431 -0.06223,0.283445 -0.07527,0.231807 -0.09872,0.211878 -0.130778,0.196819 -0.115461,0.13976 -0.155803,0.140387 -0.247952,0.142869 -0.242445,0.123935 -0.29986,0.11325 -0.459529,0.06646 -5.065536,-0.07878 z"
       id="path6156"
       sodipodi:nodetypes="cccccccccccccccccccccccccc" /><path
       style="fill:#ff00ff;stroke:#ffffff;stroke-width:0.29900024;stroke-dasharray:none;stroke-opacity:1;fill-opacity:1"
       d="m -32.523247,-20.10579 0.011,-7.324442 0.09779,-0.447488 0.23615,-0.549849 0.429054,-0.378616 0.409549,-0.224919 0.447196,0.01546 6.05154,-0.01625 0.405717,0.08928 0.434506,0.249203 0.509216,0.508393 0.274262,0.576575 0.07818,3.47028 -0.07691,0.575196 -0.18238,0.487537 -0.349753,0.409738 -0.465305,0.25505 -0.359656,0.132511 -0.447437,0.06075 -5.146873,-0.04995 z"
       id="path6156-3"
       sodipodi:nodetypes="ccccccccccccccccccccc" /></g><g
     inkscape:groupmode="layer"
     id="layer2"
     inkscape:label="Layer 2"><path
       style="fill:#ffffff;fill-opacity:1;stroke:#ffffff;stroke-width:0.148865;stroke-linejoin:bevel;stroke-dasharray:none;stroke-opacity:1"
       d="M 5.4501148,4.4610751 C 5.4850748,3.3190478 5.4478724,2.1081708 5.4135815,0.96658351 L 6.4978796,0.64950681 6.4776366,1.5340048 6.6436551,2.4560553 7.0423021,3.2340109 7.839187,4.2319215"
       id="path3415"
       sodipodi:nodetypes="ccccccc" /><path
       style="fill:#ffffff;fill-opacity:1;stroke:#ffffff;stroke-width:0.170493;stroke-linejoin:bevel;stroke-dasharray:none;stroke-opacity:1"
       d="M 8.3518646,4.8840305 7.5432921,5.6575794 6.7624058,5.9833855 6.0424026,6.1204471 5.2923756,6.1787221 4.5685887,6.1051455 3.7831062,5.9044389 3.0950108,5.5519781 2.4174869,4.9186011 8.4099199,4.8637443"
       id="path3415-5"
       sodipodi:nodetypes="cccccccccc" /><path
       style="fill:#ff00ff;fill-opacity:1;stroke:#ffffff;stroke-width:0.444855;stroke-linejoin:bevel;stroke-dasharray:none;stroke-opacity:1"
       d="M 5.2196833,0.55005411 5.2353553,4.8467317"
       id="path5005" /><path
       style="fill:#ffffff;fill-opacity:1;stroke:#ffffff;stroke-width:0.131113;stroke-linejoin:bevel;stroke-dasharray:none;stroke-opacity:1"
       d="m 2.9807897,4.6815814 -0.3239139,0.014046 -0.05832,-0.307583 -0.00401,-0.52022 -0.01283,-0.4543028 0.05338,-0.4266979 L 2.7734416,2.5550147 3.0340511,2.1577965 3.4352119,1.7448583 3.9595889,1.4096289 4.9955694,0.88744554 4.5934044,1.1127785 4.259654,1.4007988 4.0729876,1.8429925 3.9828531,2.2266609 3.881019,2.6342563 3.875319,3.0276273 3.898752,3.5933918 3.950087,3.9800093 4.032403,4.2675835 2.9687352,4.68861"
       id="path3415-5-3"
       sodipodi:nodetypes="ccccccccccccccccccccc" /></g></svg>
