<?xml version="1.0" encoding="UTF-8" standalone="no"?>
<svg
   width="24"
   height="24"
   viewBox="0 0 24 24"
   fill="none"
   version="1.1"
   id="svg8"
   sodipodi:docname="mob.svg"
   inkscape:version="1.2.2 (b0a8486541, 2022-12-01)"
   xmlns:inkscape="http://www.inkscape.org/namespaces/inkscape"
   xmlns:sodipodi="http://sodipodi.sourceforge.net/DTD/sodipodi-0.dtd"
   xmlns="http://www.w3.org/2000/svg"
   xmlns:svg="http://www.w3.org/2000/svg">
  <defs
     id="defs12" />
  <sodipodi:namedview
     id="namedview10"
     pagecolor="#ffffff"
     bordercolor="#000000"
     borderopacity="0.25"
     inkscape:showpageshadow="2"
     inkscape:pageopacity="0.0"
     inkscape:pagecheckerboard="0"
     inkscape:deskcolor="#d1d1d1"
     showgrid="false"
     inkscape:zoom="34.916667"
     inkscape:cx="11.011933"
     inkscape:cy="12"
     inkscape:window-width="1920"
     inkscape:window-height="1008"
     inkscape:window-x="0"
     inkscape:window-y="0"
     inkscape:window-maximized="1"
     inkscape:current-layer="layer1" />
  <g
     inkscape:groupmode="layer"
     id="layer2"
     inkscape:label="Layer 2">
    <ellipse
       style="fill:#ff0000;stroke:#ff0001;stroke-width:1.8197;stroke-linejoin:round;stroke-opacity:1"
       id="path352"
       cx="11.983763"
       cy="12.013896"
       rx="11.085141"
       ry="11.054039" />
  </g>
  <g
     inkscape:groupmode="layer"
     id="layer1"
     inkscape:label="Layer 1">
    <path
       d="M12.0166 9.49274C13.5334 9.49274 14.763 8.26315 14.763 6.74637C14.763 5.22959 13.5334 4 12.0166 4C10.4998 4 9.27023 5.22959 9.27023 6.74637C9.27023 8.26315 10.4998 9.49274 12.0166 9.49274Z"
       fill="#373737"
       id="path2"
       style="fill:#ffffff;fill-opacity:1" />
    <path
       d="M3.19527 5.01658C3.95467 4.89904 4.66549 5.41932 4.78302 6.17867L5.24894 9.1881L9.23398 10.7149H14.7992L18.7843 9.1881L19.2501 6.17867C19.3676 5.41932 20.0786 4.89904 20.8379 5.01658C21.5973 5.13412 22.1175 5.84498 22 6.60434L21.2919 11.1786L16.6542 12.9795L16.6542 15.4348L16.0165 15.9348C14.7965 16.7848 13.4065 17.2148 12.0165 17.2148C10.6265 17.2148 9.23651 16.7848 8.01651 15.9348L7.37886 15.4348L7.37891 12.9795L2.74124 11.1786L2.03314 6.60434C1.91561 5.84498 2.43588 5.13412 3.19527 5.01658Z"
       fill="#373737"
       id="path4"
       style="fill:#ffffff;fill-opacity:1" />
    <path
       d="m 11.892569,19.1948 c 1.017403,0 2.034806,-0.43 2.92778,-1.28 0.892973,0.85 1.910375,1.32 2.927779,1.32 h 1.463889 v 2 h -1.463889 c -1.010084,0 -2.005529,-0.34 -2.927779,-0.99 -0.922251,0.65 -1.925016,0.97 -2.92778,0.97 -1.002765,0 -2.0055288,-0.33 -2.9277794,-0.97 -0.9222505,0.64 -1.9176955,0.99 -2.9277795,0.99 H 4.5731204 v -2 h 1.4638897 c 1.0174034,0 2.0348067,-0.47 2.9277795,-1.32 0.8929727,0.85 1.9103764,1.28 2.9277794,1.28 z"
       fill="#373737"
       id="path6"
       style="fill:#ffffff;fill-opacity:1;stroke-width:0.855538" />
  </g>
</svg>
