<?xml version="1.0" encoding="UTF-8" standalone="no"?>
<svg
   width="24"
   height="24"
   viewBox="0 0 24 24"
   fill="none"
   version="1.1"
   id="svg12033"
   sodipodi:docname="pseudoaton.svg"
   inkscape:version="1.2.2 (b0a8486541, 2022-12-01)"
   xmlns:inkscape="http://www.inkscape.org/namespaces/inkscape"
   xmlns:sodipodi="http://sodipodi.sourceforge.net/DTD/sodipodi-0.dtd"
   xmlns="http://www.w3.org/2000/svg"
   xmlns:svg="http://www.w3.org/2000/svg">
  <defs
     id="defs12037" />
  <sodipodi:namedview
     id="namedview12035"
     pagecolor="#ffffff"
     bordercolor="#000000"
     borderopacity="0.25"
     inkscape:showpageshadow="2"
     inkscape:pageopacity="0.0"
     inkscape:pagecheckerboard="0"
     inkscape:deskcolor="#d1d1d1"
     showgrid="false"
     inkscape:zoom="22.627417"
     inkscape:cx="19.64431"
     inkscape:cy="11.026446"
     inkscape:window-width="1434"
     inkscape:window-height="925"
     inkscape:window-x="50"
     inkscape:window-y="89"
     inkscape:window-maximized="0"
     inkscape:current-layer="svg12033" />
  <g
     inkscape:groupmode="layer"
     id="layer2"
     inkscape:label="pin">
    <ellipse
       style="fill:#d7d7d7;fill-opacity:1;stroke:#000000;stroke-width:1.294;stroke-linejoin:round;stroke-dasharray:none;stroke-opacity:1"
       id="path2222"
       cx="12.278757"
       cy="9.3068466"
       rx="8.9613438"
       ry="8.6382751" />
    <path
       style="fill:#ff9dff;fill-opacity:1;stroke:#ff9dff;stroke-width:0.63301;stroke-linejoin:round;stroke-dasharray:none;stroke-opacity:1"
       d="m 12.066236,20.572947 -1.668668,-3.775082 3.330849,0.0325 z"
       id="path17920"
       sodipodi:nodetypes="cccc" />
    <path
       style="fill:#d7d7d7;fill-opacity:1;stroke:#000000;stroke-width:1.294;stroke-linejoin:round;stroke-dasharray:none;stroke-opacity:1"
       d="M 5.4043387,14.836239 12.00147,23.360966 19.211901,14.80538 Z"
       id="path25670"
       sodipodi:nodetypes="cccc" />
    <path
       style="fill:#d7d7d7;fill-opacity:1;stroke:#d7d7d7;stroke-width:1.29199;stroke-linejoin:round;stroke-dasharray:none;stroke-opacity:1"
       d="m 6.310337,13.955368 5.713583,7.336385 6.222642,-7.321664 z"
       id="path25670-5"
       sodipodi:nodetypes="cccc" />
  </g>
  <g
     inkscape:groupmode="layer"
     id="layer1"
     inkscape:label="Layer 1"
     style="display:inline" />
  <path
     style="fill:#000000;stroke-width:0;stroke-linejoin:bevel;fill-opacity:1;stroke:#000000;stroke-opacity:1"
     d="M 8.6472335,13.075303 5.0203164,9.5402857 8.6551009,5.9766322 12.289885,2.4129788 15.901063,5.9511291 c 1.986148,1.9459831 3.607624,3.5471918 3.603279,3.5582418 -0.01374,0.035041 -7.189445,7.1028231 -7.210275,7.1018661 -0.01095,-4.98e-4 -1.652029,-1.591673 -3.6468335,-3.535934 z M 12.605303,10.771768 V 9.7211173 h 1.009228 1.009231 V 9.4430027 9.1648895 H 13.614531 12.605303 V 8.1142391 7.0635875 H 12.289919 11.974534 V 8.1142391 9.1648895 H 10.965305 9.9560775 v 0.2781132 0.2781146 h 1.0092275 1.009229 v 1.0506507 1.050651 h 0.315385 0.315384 z"
     id="path20380" />
  <g
     id="Layer_2"
     transform="matrix(0.3132254,0,0,0.30785905,5.1198009,-5.524164)">
	<g
   id="g1315">
		<path
   d="m 22.9,25.9 c 0,0 -0.1,0 0,0 v 0 c -0.1,0.1 -0.2,0.2 -0.2,0.2 v 0 c 0,0 0,0 0,0 v 0 c 0,0 0,0 0,0 v 0 c 0,0 0,0 0,0 v 0 c 0,0 0,0 0,0 v 0 c 0,0 0,0 0,0 v 0 c 0,0 0,0 0,0 v 0 c 0,0 0,0 0,0 v 0 c 0,0 0,0 0,0 v 0 c 0,0 0,0 0,0 v 0 c 0,0 0,0 0,0 v 0 c 0,0 0,0 0,0 v 0 c 0,0 0,0 0,0 v 0 c 0,0 0,0 0,0 v 0 c 0,0 0,0 0,0 v 0 c 0,0 0,0 0,0 v 0 c 0,0 0,0 0,0 v 0 c 0,0 0,0 0,0 v 0 c 0,0 0,0 0,0 v 0 c 0,0 0,0 0,0 v 0 c 0,0 0,0 0,0 v 0 c 0,0 0,0 0,0 v 0 c 0,0 0,0 0,0 v 0 c 0,0 0,0 0,0 v 0 c 0,0 0,0 0,0 v 0 c 0,0 0,0 0,0 v 0 c 0,0 0,0 0,0 v 0 c 0,0 0,0 0,0 v 0 c 0,0 0,0 0,0 v 0 c 0,0 0,0 0,0 v 0 c 0,0 0,0 0,0 v 0 c 0,0 0,0 0,0 v 0 c 0,0 0,0 0,0 v 0 c 0,0 0,0 0,0 v 0 c 0,0 0,0 0,0 v 0 c 0,0 0,0 0,0 v 0 c 0,0 0,0 0,0 v 0 c 0,0 0,0 0,0 v 0 c 0,0 0,0 0,0 v 0 c 0,0 0,0 0,0 v 0 c 0,0 0,0 0,0 v 0 c 0,0 0,0 0,0 v 0 c 0,0 0,0 0,0 v 0 c 0,0 0,0 0,0 v 0 c 0,0 0,0 0,0 v 0 c 0,0 0,0 0,0 v 0 c 0,0 0,0 0,0 v 0 c 0,0 0,0 0,0 v 0 c 0,0 0,0 0,0 v 0 c 0,0 0,0 0,0 v 0 c 0,0 0,0 0,0 v 0 c 0,0 0,0 0,0 v 0 c 0,0 0,0 0,0 v 0 c 0,0 0,0 0,0 v 0 c 0,0 0,0 0,0 v 0 c 0,0 0,0 0,0 v 0 c 0,0 0,0 0,0 v 0 c 0,0 0,0 0,0 v 0 c 0,0 0,0 0,0 v 0 c 0,0 0,0 0,0 v 0 c 0,0 0,0 0,0 v 0 c 0,0 0,0 0,0 v 0 c 0,0 0,0 0,0 v 0 c 0,0 0,0 0,0 v 0 c 0,0 0,0 0,0 v 0 c 0,0 0,0 0,0 v 0 c 0,0 0,0 0,0 v 0 c 0,0 0,0 0,0 v 0 c 0,0 0,0 0,0 v 0 0 0 c 0,0 0,0 0,0 v 0 c 0,0 0,0 0,0 l -0.1,0.1 v 0 0 c 0,0 0,0 0,0 l -0.1,0.1 c 0,0 0,0 0,0 v 0 0 l -1.8,1.7 1.5,1.5 0.6,-0.6 0.9,0.9 1.5,-1.5 z m -4.3,4.2 -0.4,0.4 c 0,0 0,0 0,0 v 0 c 0,0 0,0 0,0 v 0 c 0,0 0,0 0,0 v 0 c 0,0 0,0 0,0 v 0 c -0.6,0.6 -1.7,1.7 -1.7,1.7 l 1.5,1.5 2.1,-2.1 z m -4.2,4.3 c 0,0 -0.7,0.7 -1.3,1.3 v 0 c 0,0 0,0 0,0 v 0 c 0,0 0,0 0,0 v 0 c 0,0 0,0 0,0 v 0 c 0,0 0,0 0,0 l -0.8,0.8 1.5,1.5 2.1,-2.1 z m -4.3,4.2 -1.3,1.3 c 0,0 0,0 0,0 v 0 c 0,0 0,0 0,0 v 0 c 0,0 0,0 0,0 v 0 C 8.4,40.3 8,40.7 8,40.7 l 1.5,1.5 2.1,-2.1 z M 5.9,42.9 3.8,45 5.3,46.5 7.4,44.4 Z m -4.2,4.2 c 0,0 -0.1,0.1 -0.1,0.1 v 0 L 0,48.8 v 0 0 0 0 0 0 0 0 0 0 0 0 0 0 l 1.5,1.5 1.7,-1.7 z m 2.4,2.7 -1.5,1.5 2.1,2.1 1.5,-1.4 z m 4.2,4.3 -1.5,1.5 2.1,2.1 1.5,-1.5 z m 4.3,4.2 -1.5,1.5 2.1,2.1 1.5,-1.5 z m 4.2,4.3 -1.5,1.5 2.1,2.1 1.5,-1.5 z m 4.3,4.2 -1.5,1.5 2.1,2.1 0.9,-0.9 1.2,1.2 2.1,-2.1 -1.5,-1.5 -1.5,1.5 z m 7.5,-4 -2.1,2.2 1.5,1.5 2.1,-2.1 z m 4.3,-4.2 -2.1,2.1 1.5,1.5 2.1,-2.1 z m 4.2,-4.3 -2.1,2.2 1.5,1.5 2.1,-2.1 z m 4.3,-4.2 -2.1,2.1 1.5,1.5 2.1,-2.1 z m 2.8,-2.8 0.1,0.1 v 0 l -0.1,-0.1 -0.7,0.7 0.1,0.1 -0.8,0.8 1.4,1.4 0.8,-0.8 v 0 l -0.8,0.8 0.8,-0.8 v 0 0 0 0 l 0.1,-0.1 v 0 l 0.1,-0.1 v 0 l 0.1,-0.1 v 0 l 0.1,-0.1 v 0 L 45.5,49 v 0 l 0.1,-0.1 v 0 0 0 0 0 0 0 0 0 0 0 0 0 0 0 0 0 0 l -0.1,-0.1 v 0 l -0.2,-0.2 v 0 l -0.2,-0.2 v 0 L 45,48.1 v 0 l -0.3,-0.3 v 0 l -0.2,-0.2 v 0 l -0.2,-0.2 v 0 z m 0.2,0.1 z m 0,0 0.2,0.2 v 0 z m 0.2,0.2 0.2,0.2 v 0 z m 0.2,0.2 0.3,0.3 v 0 z m 0.2,0.3 0.3,0.3 v 0 z m 0.3,0.2 0.2,0.2 v 0 z m 0.2,0.3 0.2,0.2 v 0 z m 0.2,0.1 z m 0,0.1 z m 0,0 z m -0.1,0.1 -0.1,0.1 v 0 z m -0.1,0.1 -0.1,0.1 v 0 z m -0.1,0.1 -0.1,0.1 v 0 z m -0.2,0.2 -0.1,0.1 v 0 z m -0.1,0.1 z M 45,49.5 Z m -4.9,-6.4 -1.5,1.5 2.1,2.1 1.5,-1.5 c 0,0 -0.2,-0.2 -0.4,-0.4 v 0 c 0,0 0,0 0,0 v 0 c 0,0 0,0 0,0 v 0 c 0,0 0,0 0,0 v 0 c 0,0 0,0 0,0 v 0 c 0,0 0,0 0,0 z m -4.2,-4.2 -1.5,1.5 2.1,2.1 L 38,41 36.8,39.8 c 0,0 0,0 0,0 v 0 c 0,0 0,0 0,0 v 0 c 0,0 0,0 0,0 v 0 c 0,0 0,0 0,0 v 0 c 0,0 0,0 0,0 v 0 c -0.5,-0.5 -0.9,-0.9 -0.9,-0.9 z m -4.3,-4.2 -1.5,1.5 2.1,2.1 1.5,-1.5 z m -4.2,-4.3 -1.5,1.5 2.1,2.1 1.5,-1.5 z"
   id="path1313" />

	</g>

	<g
   id="g1319">
		<path
   d="m 23.7,42 v 5.8 h 5.5 v 1.5 h -5.5 v 5.8 h -1.6 v -5.8 h -5.5 v -1.5 h 5.5 V 42 Z"
   id="path1317" />

	</g>

</g>
</svg>
