<?xml version="1.0" encoding="UTF-8" standalone="no"?>
<svg
   width="24"
   height="24"
   viewBox="0 0 24 24"
   fill="none"
   version="1.1"
   id="svg12033"
   sodipodi:docname="whale.svg"
   inkscape:version="1.2.2 (b0a8486541, 2022-12-01)"
   xmlns:inkscape="http://www.inkscape.org/namespaces/inkscape"
   xmlns:sodipodi="http://sodipodi.sourceforge.net/DTD/sodipodi-0.dtd"
   xmlns="http://www.w3.org/2000/svg"
   xmlns:svg="http://www.w3.org/2000/svg">
  <defs
     id="defs12037" />
  <sodipodi:namedview
     id="namedview12035"
     pagecolor="#ffffff"
     bordercolor="#000000"
     borderopacity="0.25"
     inkscape:showpageshadow="2"
     inkscape:pageopacity="0.0"
     inkscape:pagecheckerboard="0"
     inkscape:deskcolor="#d1d1d1"
     showgrid="false"
     inkscape:zoom="27.225903"
     inkscape:cx="6.7215402"
     inkscape:cy="11.808607"
     inkscape:window-width="1434"
     inkscape:window-height="925"
     inkscape:window-x="50"
     inkscape:window-y="89"
     inkscape:window-maximized="0"
     inkscape:current-layer="layer1" />
  <g
     inkscape:groupmode="layer"
     id="layer2"
     inkscape:label="pin">
    <ellipse
       style="fill:#ff9dff;fill-opacity:1;stroke:#000000;stroke-width:1.294;stroke-linejoin:round;stroke-dasharray:none;stroke-opacity:1"
       id="path2222"
       cx="12.278757"
       cy="9.3068466"
       rx="8.9613438"
       ry="8.6382751" />
    <path
       style="fill:#ff9dff;fill-opacity:1;stroke:#ff9dff;stroke-width:0.63301;stroke-linejoin:round;stroke-dasharray:none;stroke-opacity:1"
       d="m 12.066236,20.572947 -1.668668,-3.775082 3.330849,0.0325 z"
       id="path17920"
       sodipodi:nodetypes="cccc" />
    <path
       style="fill:#ff9dff;fill-opacity:1;stroke:#000000;stroke-width:1.294;stroke-linejoin:round;stroke-dasharray:none;stroke-opacity:1"
       d="M 5.4043387,14.836239 12.00147,23.360966 19.211901,14.80538 Z"
       id="path25670"
       sodipodi:nodetypes="cccc" />
    <path
       style="fill:#ff9dff;fill-opacity:1;stroke:#ff9dff;stroke-width:1.29199;stroke-linejoin:round;stroke-dasharray:none;stroke-opacity:1"
       d="m 6.310337,13.955368 5.713583,7.336385 6.222642,-7.321664 z"
       id="path25670-5"
       sodipodi:nodetypes="cccc" />
  </g>
  <g
     inkscape:groupmode="layer"
     id="layer1"
     inkscape:label="Layer 1"
     style="display:inline">
    <path
       d="m 17.613283,14.451868 c -0.606461,0 -1.212923,-0.201243 -1.766393,-0.603731 -1.112828,0.804978 -2.41996,0.804978 -3.532788,0 -1.112829,0.804978 -2.4199599,0.804978 -3.5327887,0 -0.5593582,0.402488 -1.1599322,0.603731 -1.7663941,0.603731 H 6.4261211 v -1.609952 h 0.5887981 c 0.4025259,0 0.8019136,-0.121794 1.1843732,-0.353789 0.1766099,-0.104006 0.5820209,-0.451187 0.5820209,-0.451187 0,0 0.4037387,0.344529 0.5803492,0.448532 0.7578235,0.446922 1.5992085,0.448694 2.3580475,0.0073 0.176639,-0.104007 0.594392,-0.455778 0.594392,-0.455778 0,0 0.41781,0.351776 0.594392,0.455778 0.757724,0.440804 1.597762,0.438712 2.354662,-0.0064 0.176638,-0.104006 0.583381,-0.443623 0.583381,-0.443623 0,0 0.405386,0.34453 0.581966,0.448534 0.380954,0.229901 0.784163,0.350567 1.18478,0.350567 h 0.588797 v 1.609953 z"
       fill="#373737"
       id="path16282"
       style="stroke-width:0.688456" />
    <path
       fill-rule="evenodd"
       clip-rule="evenodd"
       d="m 14.962338,8.6120046 c 1.206389,-0.3863893 2.517995,-0.8064741 2.641465,-4.7965669 0.0061,-0.1956012 -0.186,-0.2924239 -0.288746,-0.1560045 -0.64803,0.8607457 -1.458628,0.9370977 -2.259983,1.0125803 C 13.990645,4.7722737 12.942701,4.8709878 12.314102,6.8045581 11.685501,4.8709878 10.637535,4.7722733 9.5731057,4.6720135 8.7717866,4.5965309 7.9611471,4.5201789 7.3131275,3.6594332 7.2104177,3.5230138 7.0186345,3.6184358 7.0253173,3.813997 c 0.1275749,3.7329591 1.4065148,4.2051409 2.5980009,4.6449808 0.8548568,0.3155524 1.9590828,1.0170874 1.9719778,2.8942932 0.04587,-0.02349 0.09151,-0.04862 0.136778,-0.07526 0.17664,-0.104007 0.582028,-0.448534 0.582028,-0.448534 0,0 0.405385,0.34453 0.582026,0.448534 0.04598,0.02704 0.09226,0.05248 0.138838,0.07631 0.0092,-1.8198119 1.090219,-2.4741769 1.927372,-2.7423164 z"
       fill="#373737"
       id="path16284"
       style="stroke-width:0.688456" />
  </g>
</svg>
