<?xml version="1.0" standalone="no"?>
<!DOCTYPE svg PUBLIC "-//W3C//DTD SVG 20010904//EN"
 "http://www.w3.org/TR/2001/REC-SVG-20010904/DTD/svg10.dtd">
<svg version="1.0" xmlns="http://www.w3.org/2000/svg"
 width="151.000000pt" height="150.000000pt" viewBox="0 0 151.000000 150.000000"
 preserveAspectRatio="xMidYMid meet">
<g transform="translate(0.000000,150.000000) scale(0.100000,-0.100000)"
fill="#000000" stroke="none">
<path d="M40 1475 c-15 -19 1 -175 30 -289 43 -168 101 -251 288 -414 39 -35
74 -73 77 -85 4 -14 -8 -52 -30 -101 -64 -137 -87 -248 -89 -421 l-1 -150 229
-3 c215 -2 228 -1 221 15 -99 261 -131 480 -79 550 36 48 73 62 225 83 172 25
254 52 347 114 72 48 165 140 216 215 23 33 28 46 19 59 -16 26 -40 26 -103
-2 -72 -33 -153 -34 -298 -6 -136 26 -264 26 -343 0 l-60 -20 -55 60 c-57 61
-56 60 -294 173 -92 44 -146 89 -206 173 -46 65 -70 77 -94 49z"/>
</g>
</svg>
