<svg width="24" height="24" viewBox="0 0 24 24" fill="none" xmlns="http://www.w3.org/2000/svg">
<path d="M1.11648 20.5339L11.1158 1.53427C11.4907 0.821889 12.5105 0.821913 12.8854 1.53432L22.8835 20.5339C23.234 21.1999 22.7512 22 21.9987 22L2.00128 22C1.24879 22 0.765943 21.1999 1.11648 20.5339Z" fill="#EB0014"/>
<path d="M7 16.5H8.5L12 20V15.7075L14.3401 18.0476C14.1153 18.1959 13.8764 18.3228 13.6264 18.4264C13.4227 18.5107 13.2133 18.5789 13 18.6306V19.9082C13.3778 19.8384 13.7481 19.7289 14.1048 19.5812C14.5073 19.4145 14.8876 19.2009 15.2381 18.9456L16.5957 20.3032L17.3028 19.5961L15.991 18.2843C15.991 18.2843 15.991 18.2843 15.991 18.2843L15.1068 17.4C15.1067 17.4 15.1068 17.4 15.1068 17.4L14.115 16.4083C14.1149 16.4083 14.115 16.4082 14.115 16.4083L8.11042 10.4037L7.40331 11.1108L8.64624 12.3538L8.5 12.5H7C6.72386 12.5 6.5 12.7239 6.5 13V16C6.5 16.2761 6.72386 16.5 7 16.5Z" fill="white"/>
<path d="M10.0605 10.9395L12 12.879V9L10.0605 10.9395Z" fill="white"/>
<path d="M13 13.879L14.737 15.616C14.9019 15.2855 14.9921 14.9215 14.9995 14.5497C15.0089 14.0778 14.8845 13.6128 14.6407 13.2086C14.3969 12.8044 14.0436 12.4775 13.6217 12.2657C13.4239 12.1663 13.2148 12.0942 13 12.0504V13.879Z" fill="white"/>
<path d="M15.7043 16.5833L16.6141 17.4931C16.7962 17.2125 16.9527 16.9152 17.0813 16.6046C17.3577 15.9373 17.5 15.2222 17.5 14.4999C17.5 13.7776 17.3577 13.0624 17.0813 12.3951C16.8049 11.7278 16.3998 11.1215 15.8891 10.6108C15.3784 10.1001 14.7721 9.69494 14.1048 9.41854C13.7481 9.27081 13.3778 9.1614 13 9.09155V10.3692C13.2133 10.4208 13.4227 10.489 13.6264 10.5734C14.142 10.787 14.6106 11.1 15.0052 11.4947C15.3999 11.8893 15.7129 12.3578 15.9265 12.8735C16.1401 13.3891 16.25 13.9418 16.25 14.4999C16.25 15.058 16.1401 15.6107 15.9265 16.1263C15.8615 16.2832 15.7872 16.4358 15.7043 16.5833Z" fill="white"/>
</svg>
