<svg width="24" height="24" viewBox="0 0 24 24" fill="none" xmlns="http://www.w3.org/2000/svg">
<path d="M10.278 7.84254C10.824 7.6164 11.4091 7.5 12.0001 7.5C12.591 7.5 13.1762 7.6164 13.7222 7.84254C14.5196 8.17284 15 8.5 15.7123 9.34826L13.4491 11.6115C13.5827 12.1119 13.4533 12.668 13.0607 13.0606C12.4749 13.6464 11.5251 13.6464 10.9393 13.0606C10.3536 12.4749 10.3536 11.5251 10.9393 10.9393C11.3319 10.5468 11.8879 10.4173 12.3883 10.5509L13.5236 9.41563C13.4032 9.34468 13.2778 9.28206 13.1481 9.22836C12.7842 9.0776 12.3941 9 12.0001 9C11.6061 9 11.216 9.0776 10.852 9.22836C10.4881 9.37913 10.1574 9.6001 9.87878 9.87868L8.81812 8.81802C9.23598 8.40016 9.73206 8.06869 10.278 7.84254Z" fill="#1F1F1F"/>
<path fill-rule="evenodd" clip-rule="evenodd" d="M8.5 2L2.10608 4.74025C1.7384 4.89783 1.5 5.25937 1.5 5.6594V20.4835C1.5 21.2014 2.23405 21.6854 2.89392 21.4026L8.5 19L15.5 22L21.8939 19.2597C22.2616 19.1022 22.5 18.7406 22.5 18.3406V3.32573C22.5 2.66135 21.8641 2.18169 21.2253 2.36421L15.5 4L8.5 2ZM7.75 3.95338L3 5.98909V19.7252L7.33037 17.8693C5.60552 16.4952 4.5 14.3767 4.5 12C4.5 9.43576 5.78686 7.17209 7.75 5.81955V3.95338ZM9.25 6.66591C8.6936 6.95334 8.18794 7.32527 7.75 7.76473C6.66854 8.84993 6 10.3469 6 12C6 13.6531 6.66854 15.1501 7.75 16.2353C8.18794 16.6747 8.6936 17.0467 9.25 17.3341C10.0738 17.7597 11.0088 18 12 18C12.9912 18 13.9262 17.7597 14.75 17.3341C15.3064 17.0467 15.8121 16.6747 16.25 16.2353C17.3315 15.1501 18 13.6531 18 12C18 10.3469 17.3315 8.84993 16.25 7.76473C15.8121 7.32527 15.3064 6.95334 14.75 6.66591C13.9262 6.24033 12.9912 6 12 6C11.0088 6 10.0738 6.24033 9.25 6.66591ZM11.7991 4.50264C10.9012 4.52624 10.0426 4.70767 9.25 5.0202V3.77431L11.7991 4.50264ZM16.25 5.81955C18.2131 7.17209 19.5 9.43576 19.5 12C19.5 14.5642 18.2131 16.8279 16.25 18.1804V20.0466L21 18.0109V3.98859L16.25 5.34574V5.81955ZM14.75 18.9798C14.2682 19.1698 13.762 19.3113 13.2375 19.3984L14.75 20.0466V18.9798Z" fill="#1F1F1F"/>
</svg>
