<svg width="24" height="24" viewBox="0 0 24 24" fill="none" xmlns="http://www.w3.org/2000/svg">
<path fill-rule="evenodd" clip-rule="evenodd" d="M23 12C23 18.0751 18.0751 23 12 23C5.92487 23 1 18.0751 1 12C1 5.92487 5.92487 1 12 1C18.0751 1 23 5.92487 23 12ZM21.5 12C21.5 17.2467 17.2467 21.5 12 21.5C6.75329 21.5 2.5 17.2467 2.5 12C2.5 6.75329 6.75329 2.5 12 2.5C14.3534 2.5 16.5069 3.35575 18.1664 4.77305L17.1017 5.83773C16.4879 5.32954 15.8004 4.915 15.0616 4.60896C14.091 4.20693 13.0507 4 12.0001 4C10.9495 4 9.90925 4.20693 8.93865 4.60896C7.96804 5.011 7.08613 5.60028 6.34326 6.34315L7.40392 7.40381C8.0075 6.80023 8.72406 6.32144 9.51267 5.99478C10.3013 5.66813 11.1465 5.5 12.0001 5.5C12.8537 5.5 13.6989 5.66813 14.4876 5.99478C15.0442 6.22533 15.5649 6.53167 16.0353 6.90417L14.9652 7.97423C14.6406 7.73512 14.2875 7.5356 13.9133 7.3806C13.3067 7.12933 12.6565 7 11.9999 7C11.3433 7 10.6931 7.12933 10.0865 7.3806C9.47984 7.63188 8.92865 8.00017 8.46436 8.46447L9.52502 9.52513C9.85002 9.20012 10.2359 8.94231 10.6605 8.76642C11.0851 8.59053 11.5403 8.5 11.9999 8.5C12.4595 8.5 12.9146 8.59053 13.3393 8.76642C13.5304 8.84559 13.7137 8.94135 13.8871 9.05237L12.7812 10.1583C12.5412 10.0564 12.2772 10 12 10C10.8954 10 10 10.8954 10 12C10 13.1046 10.8954 14 12 14C13.1046 14 14 13.1046 14 12C14 11.7229 13.9436 11.459 13.8418 11.219L19.2271 5.83372C20.6443 7.49317 21.5 9.64666 21.5 12Z" fill="#1F1F1F"/>
</svg>
