<svg width="24" height="24" viewBox="0 0 24 24" fill="none" xmlns="http://www.w3.org/2000/svg">
<path d="M5.19963 16C4.07953 16 3.51948 16 3.09165 15.7821C2.71533 15.5903 2.40937 15.2843 2.21762 14.908C1.99963 14.4802 1.99963 13.9201 1.99963 12.8V11.2C1.99963 10.0799 1.99963 9.51988 2.21762 9.09206C2.40937 8.71573 2.71533 8.40977 3.09165 8.21802C3.51948 8.00004 4.07953 8.00004 5.19963 8.00004H7.99963L11.2683 4.73141C12.125 3.87466 12.5534 3.44628 12.9212 3.41733C13.2403 3.39222 13.5521 3.52139 13.76 3.7648C13.9996 4.04533 13.9996 4.65115 13.9996 5.86278V18.1373C13.9996 19.3489 13.9996 19.9547 13.76 20.2353C13.5521 20.4787 13.2403 20.6079 12.9212 20.5827C12.5534 20.5538 12.125 20.1254 11.2683 19.2687L7.99963 16H5.19963Z" fill="#373737"/>
<path d="M14.9996 14.6L16.3996 16L18.9996 13.4L21.5996 16L22.9996 14.6L20.3996 12L22.9996 9.40004L21.5996 8.00004L18.9996 10.6L16.3996 8.00004L14.9996 9.40004L17.5996 12L14.9996 14.6Z" fill="#373737"/>
</svg>
