<svg width="24" height="24" viewBox="0 0 24 24" fill="none" xmlns="http://www.w3.org/2000/svg">
<path d="M20.3852 17.1433C20.7544 16.6132 21.0663 16.0436 21.3147 15.4439C21.767 14.352 21.9998 13.1816 21.9998 11.9997C21.9998 10.8178 21.767 9.64752 21.3147 8.55559C20.8624 7.46366 20.1995 6.47151 19.3637 5.63578C18.528 4.80005 17.5359 4.13712 16.4439 3.68483C16.2972 3.62406 16.1491 3.56727 15.9998 3.51446V5.67519C16.7228 6.01814 17.3825 6.48292 17.9495 7.04999C18.5995 7.7 19.1152 8.47168 19.4669 9.32096C19.8187 10.1702 19.9998 11.0805 19.9998 11.9997C19.9998 12.919 19.8187 13.8292 19.4669 14.6785C19.3198 15.0337 19.1441 15.3752 18.9419 15.7L20.3852 17.1433Z" fill="#373737"/>
<path d="M17.3801 14.1383L15.9998 12.7579V8.53564C16.3019 8.71005 16.5805 8.9236 16.8282 9.17131C17.1996 9.54275 17.4943 9.9837 17.6953 10.469C17.8963 10.9543 17.9998 11.4745 17.9998 11.9997C17.9998 12.525 17.8963 13.0452 17.6953 13.5305C17.6076 13.7422 17.5021 13.9455 17.3801 14.1383Z" fill="#373737"/>
<path d="M13.9998 10.7579L9.62073 6.37887L11.2684 4.73118C12.1252 3.87443 12.5535 3.44605 12.9213 3.41711C13.2404 3.39199 13.5523 3.52117 13.7602 3.76458C13.9998 4.0451 13.9998 4.65092 13.9998 5.86255V10.7579Z" fill="#373737"/>
<path d="M1.80718 1.39374L0.393188 2.80772L5.58527 7.99981H5.19979C4.07968 7.99981 3.51963 7.99981 3.0918 8.2178C2.71548 8.40954 2.40952 8.71551 2.21777 9.09183C1.99978 9.51965 1.99978 10.0797 1.99978 11.1998V12.7998C1.99978 13.9199 1.99978 14.48 2.21777 14.9078C2.40952 15.2841 2.71548 15.5901 3.0918 15.7818C3.51963 15.9998 4.07968 15.9998 5.19978 15.9998H7.99978L11.2684 19.2684C12.1252 20.1252 12.5535 20.5536 12.9213 20.5825C13.2404 20.6076 13.5523 20.4785 13.7602 20.235C13.9998 19.9545 13.9998 19.3487 13.9998 18.1371V16.4143L20.1922 22.6067L21.6064 21.1925L1.80718 1.39374Z" fill="#373737"/>
</svg>
