<svg width="24" height="24" viewBox="0 0 24 24" fill="none" xmlns="http://www.w3.org/2000/svg">
<path d="M5.2 16.0002C4.0799 16.0002 3.51984 16.0002 3.09202 15.7822C2.71569 15.5905 2.40973 15.2845 2.21799 14.9082C2 14.4804 2 13.9203 2 12.8002V11.2002C2 10.0801 2 9.52006 2.21799 9.09224C2.40973 8.71592 2.71569 8.40995 3.09202 8.21821C3.51984 8.00022 4.0799 8.00022 5.2 8.00022H8L11.2686 4.73159C12.1254 3.87484 12.5538 3.44646 12.9215 3.41752C13.2407 3.3924 13.5525 3.52158 13.7604 3.76499C14 4.04551 14 4.65133 14 5.86296V18.1375C14 19.3491 14 19.9549 13.7604 20.2355C13.5525 20.4789 13.2407 20.608 12.9215 20.5829C12.5538 20.554 12.1254 20.1256 11.2686 19.2689L8 16.0002H5.2Z" fill="#373737"/>
<path fill-rule="evenodd" clip-rule="evenodd" d="M16 8.53605V15.4643C16.3021 15.2898 16.5807 15.0763 16.8284 14.8286C17.1999 14.4571 17.4945 14.0162 17.6955 13.5309C17.8965 13.0456 18 12.5254 18 12.0002C18 11.4749 17.8965 10.9547 17.6955 10.4694C17.4945 9.98411 17.1999 9.54316 16.8284 9.17172C16.5807 8.92401 16.3021 8.71046 16 8.53605Z" fill="#373737"/>
<path fill-rule="evenodd" clip-rule="evenodd" d="M17.9497 7.0504C17.3827 6.48333 16.723 6.01855 16 5.6756V3.51487C16.1494 3.56768 16.2975 3.62447 16.4442 3.68524C17.5361 4.13753 18.5282 4.80046 19.364 5.63619C20.1997 6.47192 20.8626 7.46407 21.3149 8.556C21.7672 9.64793 22 10.8183 22 12.0002C22 13.182 21.7672 14.3524 21.3149 15.4443C20.8626 16.5362 20.1997 17.5284 19.364 18.3641C18.5282 19.1998 17.5361 19.8628 16.4442 20.3151C16.2975 20.3758 16.1494 20.4326 16 20.4854V18.3247C16.723 17.9818 17.3827 17.517 17.9497 16.9499C18.5998 16.2999 19.1154 15.5282 19.4672 14.6789C19.8189 13.8297 20 12.9194 20 12.0002C20 11.0809 19.8189 10.1706 19.4672 9.32137C19.1154 8.47209 18.5998 7.70041 17.9497 7.0504Z" fill="#373737"/>
</svg>
