<svg width="24" height="24" viewBox="0 0 24 24" fill="none" xmlns="http://www.w3.org/2000/svg">
<path fill-rule="evenodd" clip-rule="evenodd" d="M22 12C22 17.5228 17.5228 22 12 22C6.47715 22 2 17.5228 2 12C2 6.47715 6.47715 2 12 2C17.5228 2 22 6.47715 22 12Z" fill="#FE9413"/>
<path d="M17.3132 14.6648C17.7505 13.8758 17.9996 12.968 17.9996 12.0021C17.9996 9.306 16.0597 7.06302 13.4996 6.59276V8.12809C15.2248 8.57213 16.4996 10.1382 16.4996 12.0021C16.4996 12.5483 16.3901 13.069 16.1918 13.5434L17.3132 14.6648Z" fill="#373737"/>
<path d="M14.9783 12.3298C14.9923 12.2226 14.9996 12.1132 14.9996 12.0021C14.9996 10.9769 14.3825 10.0959 13.4996 9.7101V10.8511L14.9783 12.3298Z" fill="#373737"/>
<path d="M11.9995 9.35111V6.50244L10.4367 8.104L11.9995 9.35111Z" fill="#373737"/>
<path fill-rule="evenodd" clip-rule="evenodd" d="M11.9995 17.4114V13.06L14.4402 15.5006C14.1473 15.6634 13.8318 15.7906 13.4996 15.8761V17.4114C14.2392 17.2755 14.927 16.9917 15.5313 16.5918L16.9692 18.0297L18.0282 16.9707L7.03101 5.97021L5.97037 7.03086L8.71841 9.78369L8.49955 10.0021H5.99955V14.0021H8.49955L11.9995 17.4114Z" fill="#373737"/>
</svg>
