<svg id="Layer_1" data-name="Layer 1" xmlns="http://www.w3.org/2000/svg" viewBox="0 0 116.8 122.88">
<defs>
    <style>.cls-1{fill:#e21b1b;}.cls-2{fill:#1a1a1a;}</style>
</defs>
<title>red-flag</title>
<path 
    class="cls-1" 
    d="M18,81.08l-5.78-56.9A4.3,4.3,0,0,1,14.39,20C41.59,2.6,54.66,9.66,66.7,16.16,76.22,21.3,84.92,26,103.75,10a4.45,4.45,0,0,1,6.2.44,4.22,4.22,0,0,1,1,2.42l5.78,56.89a4.23,4.23,0,0,1-1.38,3.57c-21.79,19.84-35,13.16-48.6,6.27C55.74,74,44.35,68.25,25.21,84.12a4.47,4.47,0,0,1-6.21-.5,4.26,4.26,0,0,1-1-2.54Z"/>
<path class="cls-2" 
    d="M17.89,16.71l9.88,98.6a6.89,6.89,0,1,1-13.71,1.35L4.21,18.38a10.15,10.15,0,1,1,13.68-1.67Z"/>
</svg>