<svg width="24" height="24" viewBox="0 0 24 24" fill="none" xmlns="http://www.w3.org/2000/svg">
<path fill-rule="evenodd" clip-rule="evenodd" d="M6.50019 2.37823C6.97198 2.10584 7.57568 2.28239 7.82637 2.76606L8.80891 4.66178C9.7865 4.23608 10.8657 4 12 4C13.1344 4 14.2137 4.23613 15.1914 4.66191L16.174 2.76606C16.4247 2.28239 17.0284 2.10584 17.5002 2.37823C17.972 2.65062 18.1209 3.26172 17.8274 3.72066L16.6816 5.51215C18.4482 6.78916 19.6725 8.77002 19.9434 11.0435L22.001 10.95C22.5453 10.9253 23 11.3598 23 11.9046C23 12.4494 22.5453 12.8839 22.001 12.8592L19.9637 12.7666C19.7435 15.0834 18.5351 17.1122 16.7648 18.4269L17.8274 20.0884C18.1209 20.5473 17.972 21.1584 17.5002 21.4308C17.0284 21.7032 16.4247 21.5266 16.174 21.043L15.2719 19.3025C14.2731 19.7507 13.1657 20 12 20C10.8344 20 9.7271 19.7507 8.72838 19.3026L7.82637 21.043C7.57568 21.5266 6.97198 21.7032 6.50018 21.4308C6.02839 21.1584 5.87943 20.5473 6.17297 20.0884L7.2355 18.4271C5.465 17.1124 4.25652 15.0835 4.03625 12.7666L1.99897 12.8592C1.45475 12.8839 1 12.4494 1 11.9046C1 11.3598 1.45475 10.9253 1.99897 10.95L4.05659 11.0435C4.32747 8.76991 5.55191 6.78897 7.31867 5.51197L6.17297 3.72066C5.87944 3.26172 6.02839 2.65062 6.50019 2.37823ZM12 18C15.3137 18 18 15.3137 18 12C18 8.68629 15.3137 6 12 6C8.68629 6 6 8.68629 6 12C6 15.3137 8.68629 18 12 18Z" fill="#373737"/>
<path d="M14.348 16L13.676 13.888H10.532L9.86 16H8L11.06 7.396H13.136L16.208 16H14.348ZM12.596 10.372C12.556 10.244 12.504 10.08 12.44 9.88C12.376 9.672 12.312 9.464 12.248 9.256C12.192 9.04 12.144 8.856 12.104 8.704C12.064 8.864 12.012 9.06 11.948 9.292C11.884 9.516 11.82 9.732 11.756 9.94C11.7 10.14 11.656 10.284 11.624 10.372L10.976 12.436H13.256L12.596 10.372Z" fill="#373737"/>
</svg>
